<?xml version="1.0" encoding="UTF-8" standalone="no"?>
<!-- Created with Inkscape (http://www.inkscape.org/) -->

<svg
   xmlns:dc="http://purl.org/dc/elements/1.1/"
   xmlns:cc="http://creativecommons.org/ns#"
   xmlns:rdf="http://www.w3.org/1999/02/22-rdf-syntax-ns#"
   xmlns:svg="http://www.w3.org/2000/svg"
   xmlns="http://www.w3.org/2000/svg"
   xmlns:sodipodi="http://sodipodi.sourceforge.net/DTD/sodipodi-0.dtd"
   xmlns:inkscape="http://www.inkscape.org/namespaces/inkscape"
   width="744.09448819"
   height="1052.3622047"
   id="svg2"
   version="1.1"
   inkscape:version="0.48.2 r9819"
   sodipodi:docname="New document 1">
  <defs
     id="defs4" />
  <sodipodi:namedview
     id="base"
     pagecolor="#ffffff"
     bordercolor="#666666"
     borderopacity="1.0"
     inkscape:pageopacity="0.0"
     inkscape:pageshadow="2"
     inkscape:zoom="1.4"
     inkscape:cx="375"
     inkscape:cy="691.42857"
     inkscape:document-units="px"
     inkscape:current-layer="layer1"
     showgrid="false"
     inkscape:window-width="1920"
     inkscape:window-height="1125"
     inkscape:window-x="-9"
     inkscape:window-y="-9"
     inkscape:window-maximized="1" />
  <metadata
     id="metadata7">
    <rdf:RDF>
      <cc:Work
         rdf:about="">
        <dc:format>image/svg+xml</dc:format>
        <dc:type
           rdf:resource="http://purl.org/dc/dcmitype/StillImage" />
        <dc:title></dc:title>
      </cc:Work>
    </rdf:RDF>
  </metadata>
  <g
     inkscape:label="Layer 1"
     inkscape:groupmode="layer"
     id="layer1">
    <path
       style="fill:#000000"
       d="m 365.17078,608.19887 c -0.35897,-0.83631 -1.57858,-3.71014 -2.71029,-6.3863 -2.80385,-6.63058 -5.21354,-10.90371 -8.796,-15.59828 -3.83402,-5.02417 -7.17417,-8.09958 -18.65959,-17.1805 -13.69802,-10.83028 -20.8544,-16.74132 -23.65473,-19.53832 -6.32865,-6.32115 -10.71802,-14.84709 -12.16676,-23.63279 l -0.55552,-3.36901 -2.04176,1.51938 c -1.12299,0.83565 -3.91182,3.21841 -6.19745,5.29504 -2.28559,2.07662 -4.34534,3.77567 -4.57718,3.77567 -0.74911,0 -0.92011,-1.18708 -0.92471,-6.41948 -0.004,-2.82519 -0.11629,-5.80391 -0.25287,-6.61938 l -0.24839,-1.48264 -2.72516,1.81733 c -5.56901,3.71378 -12.58767,6.47275 -18.82377,7.39943 -6.22937,0.92567 -15.61006,0.16977 -42.23036,-3.40303 -17.68098,-2.37303 -24.51709,-1.67232 -39.70574,4.06996 -3.79754,1.43573 -7.0921,2.61041 -7.32122,2.61041 -0.72685,0 -0.46774,-0.94542 1.67429,-6.10969 6.51168,-15.69912 7.65333,-23.67973 5.70629,-39.88845 -1.57418,-13.10488 -3.27878,-31.14819 -3.27878,-34.70638 0,-10.02395 3.49447,-20.20528 9.38911,-27.35582 l 1.00276,-1.21644 -1.80709,-0.27115 c -0.99393,-0.14913 -4.02527,-0.38545 -6.73633,-0.52517 -6.47147,-0.33352 -8.42073,-0.58445 -8.42073,-1.08406 0,-0.22633 1.97649,-2.4902 4.39217,-5.03081 2.41564,-2.5406 4.55163,-4.90061 4.74654,-5.24446 0.41224,-0.72719 0.55133,-0.67541 -4.29847,-1.60027 -4.47022,-0.85247 -9.45287,-2.76432 -13.92411,-5.34272 -6.56845,-3.78774 -10.25069,-7.90825 -32.39396,-36.24933 -9.24439,-11.83187 -15.29175,-16.49002 -29.50101,-22.72395 -4.640113,-2.03573 -6.656563,-3.11666 -6.572273,-3.52318 0.0684,-0.33003 3.17473,-1.86483 7.104593,-3.51022 8.42598,-3.52795 11.51725,-5.20186 16.64453,-9.01293 4.9152,-3.65345 8.25744,-7.12453 15.63799,-16.2409 10.79705,-13.3364 18.62212,-22.61762 21.31774,-25.28468 6.46314,-6.3947 15.13509,-10.78682 24.16149,-12.23715 l 3.41294,-0.54838 -1.53471,-2.0155 c -0.84412,-1.10852 -3.25796,-3.86609 -5.36408,-6.12794 -2.10617,-2.26184 -3.82938,-4.29506 -3.82938,-4.51826 0,-0.72851 1.22121,-0.898 6.50318,-0.90253 2.86203,-0.002 5.8796,-0.11479 6.7057,-0.24964 l 1.50197,-0.24519 -1.84102,-2.69008 c -3.76222,-5.49731 -6.55716,-12.42561 -7.49593,-18.58145 -0.93864,-6.15509 -0.24181,-14.59973 3.43566,-41.63747 2.40258,-17.66436 1.74104,-24.01065 -4.07884,-39.12954 -1.47227,-3.82465 -2.67688,-7.13361 -2.67688,-7.35327 0,-0.70464 0.97832,-0.44153 6.18935,1.66463 15.91218,6.43122 23.65119,7.5155 40.22791,5.63618 14.80204,-1.67811 31.83741,-3.2399 35.33965,-3.2399 10.15466,0 20.46878,3.44946 27.71253,9.26823 l 1.23231,0.98988 0.27468,-1.78385 c 0.15108,-0.98111 0.39051,-3.97343 0.53202,-6.6496 0.3379,-6.3882 0.59208,-8.31234 1.09823,-8.31234 0.22925,0 2.52264,1.95102 5.09639,4.33561 2.57374,2.38458 4.96453,4.49303 5.31286,4.68546 0.73667,0.40695 0.68421,0.54423 1.62113,-4.24316 0.8636,-4.41267 2.80037,-9.33116 5.41239,-13.74486 3.83714,-6.48388 8.01136,-10.11874 36.72201,-31.97698 11.98619,-9.125401 16.70508,-15.094924 23.0203,-29.121288 2.06226,-4.580368 3.15728,-6.570841 3.56911,-6.487675 0.33433,0.06757 1.88916,3.133912 3.55602,7.013141 3.57392,8.317544 5.26969,11.369032 9.13045,16.430285 3.85324,5.051426 7.13358,8.075787 18.48206,17.039857 13.7648,10.87265 20.99221,16.8385 23.81496,19.6579 6.29148,6.284 10.72657,14.89877 12.16676,23.63278 l 0.55552,3.36899 2.0418,-1.51496 c 1.12296,-0.83324 3.9165,-3.216 6.20784,-5.29503 2.29134,-2.07904 4.35107,-3.78007 4.57719,-3.78007 0.73801,0 0.9097,1.20549 0.91429,6.41948 0.002,2.82518 0.11629,5.80389 0.2529,6.61935 l 0.24838,1.48267 2.72517,-1.81734 c 5.56899,-3.71379 12.58764,-6.47276 18.82376,-7.39943 6.24577,-0.92811 15.68309,-0.16801 42.23033,3.4013 17.67737,2.37673 24.29047,1.70253 39.58987,-4.03623 3.87452,-1.45332 7.22666,-2.6424 7.44918,-2.6424 0.71383,0 0.44728,0.96572 -1.68633,6.10969 -6.51168,15.69914 -7.65337,23.67974 -5.70633,39.88846 1.57418,13.10487 3.27878,31.14818 3.27878,34.70637 0,10.19644 -2.93419,18.65659 -9.63849,27.79078 -0.21795,0.2969 -0.31025,0.62473 -0.20513,0.72848 0.32569,0.32151 8.01612,1.06669 11.00839,1.06669 3.3089,0 5.40751,0.34638 5.40751,0.89252 0,0.21213 -1.97645,2.46437 -4.39213,5.00497 -2.41568,2.54061 -4.55163,4.90062 -4.74658,5.24447 -0.41225,0.72719 -0.55133,0.67541 4.29851,1.60027 8.38861,1.59971 15.27976,5.30975 21.89771,11.78929 4.19656,4.10876 7.39607,8.01349 24.42036,29.80276 9.2444,11.83187 15.29175,16.49002 29.50101,22.72395 4.64011,2.03573 6.65652,3.11667 6.57228,3.52319 -0.0684,0.33002 -3.17478,1.86483 -7.10459,3.51022 -8.38409,3.5104 -11.42401,5.15323 -16.60658,8.97449 -4.88082,3.59876 -8.20306,7.04891 -15.67594,16.27933 -10.7971,13.3364 -18.62218,22.61762 -21.31775,25.28468 -6.42629,6.35825 -15.1866,10.79509 -24.16153,12.23715 l -3.41294,0.54838 1.53475,2.01549 c 0.84408,1.10852 3.25791,3.8661 5.36408,6.12795 2.10613,2.26184 3.82934,4.29505 3.82934,4.51825 0,0.72852 -1.22121,0.89801 -6.50319,0.90254 -2.86202,0.002 -5.8796,0.11479 -6.70569,0.24964 l -1.50197,0.24519 1.84102,2.69008 c 3.76221,5.49731 6.55716,12.42561 7.49592,18.58145 0.94214,6.17792 0.25398,14.53988 -3.41388,41.484 -2.42727,17.83048 -1.7769,24.12746 4.0571,39.28299 1.47228,3.82465 2.67685,7.13365 2.67685,7.3533 0,0.7216 -1.04384,0.42758 -7.02658,-1.97903 -8.37916,-3.37063 -11.83075,-4.44702 -17.14682,-5.34722 -6.07759,-1.02919 -13.46717,-1.0197 -22.42456,0.0288 -13.27577,1.55392 -31.55437,3.23657 -35.15895,3.23657 -10.15467,0 -20.46875,-3.44945 -27.71254,-9.26821 l -1.2323,-0.98989 -0.27468,1.78383 c -0.15108,0.98113 -0.39049,3.97346 -0.53203,6.64962 -0.33786,6.38822 -0.59207,8.31234 -1.09819,8.31234 -0.22929,0 -2.52267,-1.951 -5.09641,-4.3356 -2.57374,-2.38459 -4.96451,-4.49304 -5.31284,-4.68548 -0.73667,-0.40694 -0.68422,-0.54424 -1.62114,4.24318 -1.6206,8.28064 -5.37899,15.08308 -11.94305,21.61585 -4.16231,4.14254 -8.11795,7.30087 -30.19139,24.10602 -11.98142,9.12179 -16.70582,15.09664 -23.01188,29.10264 -1.74038,3.86544 -3.19831,6.58905 -3.52717,6.58905 -0.30828,0 -0.85428,-0.68425 -1.21324,-1.52055 z m 4.16078,-6.56095 c 6.14327,-13.67678 11.2947,-19.9515 24.50986,-29.85437 12.153,-9.10691 24.41674,-18.72663 27.31598,-21.42672 5.02471,-4.67956 8.89951,-10.39439 11.16181,-16.46211 1.09708,-2.94257 2.49562,-8.78521 2.49924,-10.44111 0.006,-2.58023 1.82655,-1.51499 8.67988,5.07769 l 3.13164,3.01257 0.27453,-5.21087 c 0.31075,-5.89851 1.00345,-11.00715 1.5366,-11.33243 0.19729,-0.12035 1.58631,0.68867 3.0867,1.79786 5.40276,3.99398 12.45895,7.03653 18.95375,8.17261 1.42641,0.24948 4.75362,0.44992 7.39381,0.44534 4.37309,-0.007 22.09161,-1.59176 34.37558,-3.07342 16.74398,-2.01961 25.07315,-1.00871 39.68414,4.81629 l 6.41199,2.5563 -1.33972,-3.28301 c -2.22397,-5.44989 -4.31153,-11.59899 -5.17542,-15.24469 -1.16612,-4.92114 -1.46796,-15.99771 -0.61327,-22.50413 4.41669,-33.62198 4.82914,-37.72501 4.34505,-43.22606 -0.74357,-8.4506 -3.48351,-15.03764 -10.02609,-24.1038 -0.21795,-0.30199 -0.26445,-0.67918 -0.10334,-0.8382 0.3627,-0.35805 7.19779,-0.92004 11.51183,-0.94653 l 3.20768,-0.0197 -3.84113,-4.15617 c -4.09498,-4.43081 -6.47652,-7.57486 -6.47652,-8.55006 0,-0.41529 0.6601,-0.68614 2.15653,-0.88487 6.85907,-0.91085 15.69865,-4.30356 20.43566,-7.84341 5.03231,-3.7605 11.2535,-10.74726 27.27708,-30.63386 11.29261,-14.01509 17.613,-18.80993 33.1982,-25.18527 2.64896,-1.0836 4.77468,-2.00141 4.72383,-2.03959 -0.0509,-0.0381 -2.94479,-1.3178 -6.43093,-2.84362 -14.35964,-6.28502 -19.97282,-10.89465 -31.65323,-25.99418 -10.56612,-13.65913 -17.40601,-22.13934 -20.29658,-25.16411 -4.73989,-4.96001 -10.5294,-8.78521 -16.67678,-11.01857 -2.98094,-1.08297 -8.89976,-2.4635 -10.57725,-2.46707 -2.61088,-0.005 -1.53911,-1.82223 4.93339,-8.36216 l 3.25689,-3.29082 -5.07071,-0.27447 c -7.17791,-0.38853 -11.43761,-1.01792 -11.43761,-1.68995 0,-0.30024 1.02154,-2.02681 2.27006,-3.83681 5.73571,-8.31497 8.05326,-15.53858 8.03634,-25.04846 -0.008,-4.3168 -1.61251,-21.80724 -3.1135,-33.93309 -2.04742,-16.54045 -1.02334,-24.7452 4.88994,-39.1765 l 2.59482,-6.33265 -3.33387,1.32567 c -5.52848,2.19835 -11.75632,4.25877 -15.45146,5.11198 -4.98532,1.1511 -16.20633,1.44907 -22.79758,0.60537 -34.06043,-4.35983 -38.21696,-4.76696 -43.78973,-4.28913 -8.56081,0.73404 -15.23373,3.43868 -24.41813,9.89706 -0.30593,0.21513 -0.68804,0.26104 -0.84913,0.10197 -0.36272,-0.35805 -0.93204,-7.10515 -0.95886,-11.36366 l -0.02,-3.16639 -4.21036,3.79169 c -4.48861,4.04226 -7.67366,6.39315 -8.66155,6.39315 -0.42071,0 -0.6951,-0.65159 -0.89642,-2.12876 -0.58432,-4.28744 -2.27138,-9.80135 -4.22893,-13.82168 -4.15635,-8.53602 -7.25206,-11.55316 -31.50017,-30.70076 -5.19621,-4.10321 -11.00204,-8.92458 -12.90188,-10.71419 -6.54693,-6.16711 -11.03957,-13.14663 -15.87302,-24.65924 l -2.00714,-4.780762 -0.95532,2.145144 c -3.60029,8.084425 -5.44122,11.797055 -7.29481,14.711506 -4.96236,7.802317 -9.35124,12.107152 -22.17214,21.747402 -24.08443,18.10948 -28.51817,22.11846 -32.63159,29.50549 -2.71062,4.86772 -5.35378,13.03523 -5.3615,16.56709 -0.006,2.58023 -1.82656,1.515 -8.67988,-5.0777 l -3.13165,-3.01257 -0.27451,5.21089 c -0.39114,7.42439 -1.00092,11.09033 -1.84468,11.09033 -0.36878,0 -1.77599,-0.8217 -3.12709,-1.826 -4.97545,-3.69841 -12.26008,-6.79247 -18.60528,-7.90239 -1.42639,-0.24951 -4.75361,-0.4499 -7.39381,-0.44532 -4.3596,0.007 -21.56729,1.53797 -34.58097,3.07552 -16.84121,1.98979 -24.85503,1.0117 -39.47875,-4.81841 l -6.41199,-2.5563 1.33971,3.28303 c 2.22398,5.44987 4.31154,11.59898 5.17542,15.24467 1.16613,4.92115 1.46796,15.99771 0.61328,22.50412 -4.41669,33.622 -4.82914,37.72503 -4.3451,43.22607 0.74362,8.45061 3.48356,15.03764 10.02613,24.10381 0.21796,0.30199 0.27904,0.66477 0.1358,0.80619 -0.35354,0.34898 -7.59344,0.96594 -11.54428,0.98376 l -3.20768,0.0145 3.84112,4.15617 c 4.09498,4.43082 6.47653,7.57486 6.47653,8.55006 0,0.4153 -0.6601,0.68614 -2.15653,0.88487 -6.85907,0.91086 -15.69866,4.30358 -20.43566,7.84341 -5.03231,3.7605 -11.25351,10.74727 -27.27708,30.63386 -11.29265,14.0151 -17.613,18.80993 -33.198203,25.18527 -2.649,1.0836 -4.77472,2.00141 -4.72382,2.03959 0.0508,0.0381 2.94479,1.3178 6.430883,2.84362 14.35969,6.28503 19.97282,10.89465 31.65323,25.99418 10.56616,13.65913 17.40605,22.13934 20.29662,25.16411 4.73988,4.96001 10.5294,8.78521 16.67678,11.01857 2.98089,1.08297 8.89976,2.4635 10.57725,2.46707 2.61388,0.005 1.53475,1.80305 -5.14391,8.56816 l -3.05184,3.09132 5.27881,0.27099 c 6.96559,0.35758 11.23498,1.00205 11.23498,1.69591 0,0.29531 -1.02154,2.01783 -2.27007,3.82783 -5.7357,8.31497 -8.05325,15.53858 -8.03633,25.04846 0.008,4.3168 1.61251,21.80724 3.11349,33.93309 2.04546,16.52451 1.02146,24.75141 -4.87453,39.1622 l -2.58508,6.31835 4.5536,-1.78351 c 11.27067,-4.41441 15.45885,-5.36473 24.88653,-5.64679 5.23026,-0.15647 8.53118,-0.0432 12.11763,0.41587 34.06045,4.35983 38.21696,4.76698 43.78976,4.28912 8.56079,-0.73401 15.23371,-3.43867 24.41809,-9.89703 0.30594,-0.21515 0.68804,-0.26105 0.84914,-0.10208 0.36312,0.35841 0.93207,7.10701 0.95885,11.37315 l 0.0201,3.17584 4.21037,-3.79692 c 4.49498,-4.05362 7.67637,-6.40686 8.66156,-6.40686 0.4207,0 0.6951,0.65161 0.89641,2.12877 0.58432,4.28741 2.27134,9.80134 4.22893,13.82167 4.15635,8.53604 7.25206,11.55318 31.50018,30.70077 5.1962,4.10321 11.00202,8.92457 12.90186,10.7142 6.54192,6.16239 11.04093,13.14922 15.86174,24.63281 1.09773,2.61485 2.0275,4.71321 2.0662,4.66301 0.0386,-0.0503 1.33499,-2.90688 2.88071,-6.34815 z m -4.95681,-12.68774 c -2.53037,-4.50646 -7.10857,-10.27951 -11.35114,-14.31371 -2.11598,-2.01208 -8.65322,-7.47364 -14.52719,-12.13682 -20.47588,-16.25528 -24.14711,-19.61252 -27.36765,-25.02717 -3.0382,-5.10808 -5.28834,-12.84975 -5.28834,-18.19486 l 0,-1.94099 3.18344,-1.02522 c 1.7509,-0.5639 8.72881,-2.50409 15.50647,-4.31151 14.70936,-3.92261 19.50971,-5.50763 23.14939,-7.64377 3.68344,-2.16182 7.75582,-5.9263 10.14489,-9.37782 1.08426,-1.56641 2.19772,-2.848 2.47442,-2.848 0.66836,0 1.70866,1.79756 4.09715,7.07967 l 1.98084,4.38068 2.4904,-5.02762 c 2.68346,-5.41745 4.11182,-7.65388 4.88025,-7.64115 0.26704,0.004 1.04002,0.94445 1.71778,2.08892 1.7424,2.94215 6.47624,7.62172 9.85842,9.74537 4.6079,2.89331 7.71568,3.98263 28.12744,9.85928 9.55207,2.75005 14.56404,4.49629 15.25125,5.31365 0.40116,0.47713 0.3708,1.54386 -0.14742,5.18333 -1.33885,9.40263 -4.97521,16.63607 -11.46246,22.80118 -2.26788,2.15529 -12.13328,9.87631 -25.47981,19.94158 -4.22244,3.18431 -9.44982,7.44569 -11.61641,9.46981 -4.16288,3.88903 -9.12104,10.02898 -11.38733,14.10149 -0.74743,1.34319 -1.63629,2.44391 -1.97517,2.44601 -0.34102,0.004 -1.34982,-1.30276 -2.25922,-2.92233 z m 3.49546,-0.7288 c 1.59563,-3.08741 7.00469,-9.66234 11.20052,-13.61471 2.3449,-2.20881 6.92927,-6.01578 10.18751,-8.4599 10.03665,-7.52886 24.306,-18.65307 26.71708,-20.82834 6.5961,-5.95087 10.7766,-14.47872 11.67828,-23.82268 l 0.27698,-2.87023 -1.99727,-0.83022 c -2.54113,-1.05627 -6.85982,-2.42144 -15.14187,-4.7864 -17.00708,-4.85639 -22.20242,-6.67464 -26.0016,-9.09994 -3.2817,-2.0949 -7.11289,-5.6995 -9.35638,-8.803 l -1.9069,-2.63789 -0.84142,1.35167 c -0.46281,0.7434 -1.94399,3.59591 -3.29155,6.33889 -1.70917,3.47894 -2.63844,4.95047 -3.07271,4.86577 -0.35116,-0.0685 -1.66964,-2.40794 -3.02493,-5.36733 -1.32131,-2.88524 -2.55854,-5.40007 -2.74947,-5.58849 -0.19088,-0.18843 -1.12106,0.74657 -2.06702,2.0778 -2.06028,2.89929 -6.54685,7.02842 -9.66174,8.89192 -4.30746,2.57699 -9.84962,4.37254 -29.01121,9.39895 -7.16809,1.88033 -12.64748,3.57303 -12.88252,3.97978 -0.33436,0.57853 0.618,6.52092 1.58741,9.9053 1.07806,3.76358 2.78722,7.43557 4.85847,10.43815 2.91588,4.22692 7.71906,8.42473 28.61807,25.01116 5.08324,4.03428 10.85547,8.95238 12.82719,10.92909 3.84577,3.85551 8.19752,9.41804 10.30225,13.16857 0.71502,1.2741 1.4438,2.22876 1.61957,2.12154 0.17572,-0.1072 0.68573,-0.90349 1.13326,-1.76946 z M 289.82051,520.567 c 0,-2.30089 -1.29363,-8.43609 -2.53341,-12.01477 -1.48812,-4.29565 -2.60348,-6.54213 -8.75718,-17.63836 -9.88655,-17.82728 -10.9649,-20.21293 -11.66965,-25.81652 -0.42868,-3.40811 0,-8.77669 0.94764,-11.8931 l 0.55536,-1.82465 3.02673,0.10697 c 3.04243,0.10751 18.75884,2.02502 19.29908,2.35459 0.55153,0.33648 8.46324,14.98767 9.54142,17.66912 1.68127,4.1814 2.3684,7.7653 2.666,13.90516 l 0.27394,5.65226 3.61508,-3.21938 c 4.59858,-4.09523 8.66629,-6.76222 12.59269,-8.25634 3.12084,-1.18761 19.63421,-5.70826 20.85148,-5.70826 0.70451,0 13.38255,9.95274 15.6736,12.30436 1.67277,1.71701 1.59111,2.35433 -0.74373,5.80574 -3.36998,4.98169 -8.00347,8.72053 -13.54567,10.93031 -2.52038,1.0049 -11.32969,3.53169 -23.71469,6.802 -12.28564,3.24413 -18.05174,5.64514 -23.98646,9.9881 -3.20953,2.3487 -4.09223,2.53263 -4.09223,0.85277 z m 4.39652,-2.55975 c 5.30716,-3.83807 11.42738,-6.23219 25.17872,-9.84947 23.1528,-6.09034 26.21051,-7.34875 31.6798,-13.03816 2.04825,-2.13071 4.87847,-6.13114 4.87847,-6.89558 0,-0.57505 -3.8539,-3.93822 -10.67994,-9.32003 l -5.13459,-4.04823 -4.31306,1.15731 c -12.12367,3.25317 -14.85856,4.10135 -18.02097,5.58898 -3.87021,1.82056 -5.21724,2.77907 -10.63735,7.56925 -2.0938,1.85044 -4.06758,3.36446 -4.38617,3.36446 -0.66852,0 -0.90496,-1.75471 -1.2293,-9.12329 -0.32751,-7.44136 -1.2427,-10.05352 -7.46705,-21.31296 -2.86001,-5.17355 -4.28016,-7.35373 -4.87002,-7.47636 -2.41576,-0.50222 -17.94658,-2.27404 -18.93497,-2.16018 -1.00498,0.11578 -1.22548,0.3962 -1.69889,2.16044 -0.97454,3.63201 -1.11708,8.23043 -0.36817,11.87888 0.89026,4.33693 1.90341,6.58893 7.79012,17.31566 11.19336,20.39636 12.72795,23.76683 14.03078,30.81646 0.37092,2.00712 0.75725,4.06732 0.85846,4.57822 0.20707,1.04537 0.21651,1.04193 3.32413,-1.2054 z m 144.91736,1.56669 c -6.67408,-4.97025 -10.50612,-6.63312 -25.0343,-10.86337 -22.10055,-6.43509 -25.09348,-7.55044 -29.07439,-10.83479 -3.64482,-3.00707 -8.10826,-8.87128 -8.11869,-10.66658 -0.004,-0.70221 2.0517,-2.43085 11.19492,-9.4135 3.10935,-2.37459 5.90269,-4.31746 6.20739,-4.31746 0.99837,0 15.99898,4.48825 19.12175,5.72132 4.21612,1.66478 8.19826,4.3709 12.60131,8.56344 l 3.73946,3.56064 0.28721,-5.17201 c 0.55092,-9.92051 1.61308,-12.99926 8.66945,-25.12826 3.41534,-5.87061 4.90918,-8.07713 5.61097,-8.28789 1.51075,-0.45368 18.14198,-2.03291 19.90519,-1.8901 1.52584,0.12358 1.62085,0.21818 2.36905,2.35887 0.61107,1.74838 0.78738,3.45647 0.81613,7.90686 0.0573,8.8635 -0.0368,9.08277 -14.66999,34.19998 -6.06293,10.40676 -8.04545,15.39578 -9.33019,23.4795 -0.27083,1.70407 -0.66743,2.93657 -0.94356,2.93219 -0.26199,-0.004 -1.77026,-0.97112 -3.35171,-2.14884 z m 5.32782,-10.21075 c 1.30875,-3.7989 4.59835,-10.12353 10.86135,-20.8822 7.16884,-12.31474 9.59298,-17.03578 10.51432,-20.47673 0.84736,-3.16467 0.83933,-9.39803 -0.0169,-13.11408 l -0.66874,-2.90236 -2.1236,-0.0103 c -1.16798,-0.005 -5.86349,0.39081 -10.43447,0.88089 l -8.31087,0.89103 -4.92043,8.54653 c -2.70625,4.70058 -5.38934,9.78129 -5.9624,11.29047 -1.27305,3.35234 -2.27483,8.80742 -2.27964,12.41327 -0.005,3.84792 -0.44617,6.94141 -0.9897,6.94141 -0.25747,0 -1.66426,-1.19754 -3.12627,-2.66116 -5.40117,-5.40746 -10.29793,-8.75838 -15.59728,-10.67355 -2.55312,-0.92267 -16.20949,-4.9119 -16.815,-4.9119 -0.41249,0 -12.321,8.95433 -14.98996,11.27129 -1.7472,1.51681 -1.74075,1.57484 0.53934,4.8546 3.21367,4.62267 7.84417,8.24665 13.24296,10.36438 1.49659,0.58705 8.98283,2.89724 16.63608,5.13378 7.65325,2.23651 15.60898,4.71127 17.67937,5.49949 3.94645,1.50237 8.79469,4.19379 12.24383,6.797 l 2.04211,1.54127 0.88872,-4.38295 c 0.48879,-2.41061 1.20301,-5.29527 1.58717,-6.41035 z M 239.9123,519.49224 c -6.09989,-0.74139 -14.51035,-1.80699 -18.68991,-2.36805 -11.10899,-1.49127 -16.01712,-1.68975 -22.38681,-0.90531 -2.93698,0.36169 -6.72631,1.01674 -8.42072,1.45567 -3.90422,1.01135 -4.67683,1.02927 -4.40988,0.10239 3.563,-12.37176 3.91499,-18.85424 1.96483,-36.18907 -3.86347,-34.34182 -3.80186,-38.07825 0.7837,-47.53083 2.04143,-4.20817 6.7374,-10.45276 7.86052,-10.45276 1.16707,0 5.20249,2.08901 18.19879,9.42082 12.47804,7.03946 16.24281,8.90468 20.37566,10.09499 3.96998,1.14338 10.13141,1.40576 14.36231,0.61162 1.91232,-0.35894 3.62625,-0.50522 3.80875,-0.32507 0.38452,0.37957 -0.70812,4.04894 -2.68264,9.00879 l -1.38083,3.46866 4.18629,-1.52421 c 5.25766,-1.9143 9.57959,-3.00343 10.03595,-2.52907 0.19035,0.19789 0.0869,1.54582 -0.22999,2.99541 -0.31683,1.44959 -0.58292,4.5515 -0.5913,6.89315 -0.0279,7.76751 1.19336,10.8743 11.79428,30.0055 6.48679,11.70652 8.89487,16.63192 8.67716,17.74788 -0.3259,1.67058 -8.41748,7.04967 -13.56427,9.01722 -7.40736,2.83175 -13.06769,3.02281 -29.69189,1.00231 z m 23.9697,-0.42361 c 3.43525,-0.77654 7.4871,-2.37303 10.53474,-4.15086 3.2168,-1.87648 7.59919,-5.28766 7.59919,-5.91505 0,-0.79567 -2.80985,-6.3091 -8.08262,-15.85937 -8.16342,-14.78602 -8.63823,-15.6908 -10.00033,-19.05689 -2.33431,-5.76869 -3.07965,-13.2143 -1.8768,-18.74827 l 0.54969,-2.52909 -1.07761,0.23451 c -0.59265,0.12897 -3.75133,1.1275 -7.01927,2.21895 -3.52927,1.17873 -6.09208,1.83601 -6.31205,1.61884 -0.22001,-0.21718 0.38283,-2.31379 1.48476,-5.16385 2.78525,-7.20388 2.87475,-7.52448 2.02701,-7.26052 -1.98199,0.61709 -8.85339,0.99209 -11.89791,0.64933 -6.54344,-0.73669 -10.06626,-2.28503 -27.00913,-11.8709 -6.0999,-3.45119 -12.2131,-6.83382 -13.5849,-7.51699 l -2.49421,-1.24211 -1.81884,2.29074 c -3.92476,4.94302 -6.4373,9.73699 -7.79919,14.88098 -1.51906,5.73749 -1.05383,14.65797 2.14638,41.15619 1.00169,8.29417 1.18843,19.66321 0.40296,24.53152 -0.28786,1.78411 -0.90385,4.66614 -1.36888,6.40455 -0.46499,1.73838 -0.77676,3.22641 -0.6928,3.30673 0.084,0.0803 1.49067,-0.18327 3.12598,-0.58579 8.37184,-2.06065 19.04826,-2.07642 33.79036,-0.05 4.85732,0.6677 12.89809,1.67759 17.86837,2.24424 4.97029,0.56662 9.68384,1.10668 10.47457,1.20019 2.3081,0.27285 8.20182,-0.14772 11.03053,-0.78712 z m 208.11376,-0.0572 c -2.63842,-0.35212 -7.51973,-1.90481 -10.66818,-3.39345 -4.17816,-1.97553 -10.48633,-6.61426 -10.48633,-7.71117 0,-1.15201 2.11624,-5.13553 9.54367,-17.9645 7.13125,-12.31741 9.0208,-16.03373 10.22662,-20.1134 1.1583,-3.91888 1.42411,-10.00097 0.61961,-14.17741 -0.36362,-1.88772 -0.51181,-3.5796 -0.32932,-3.75975 0.38453,-0.37958 4.10174,0.69902 9.12627,2.6481 l 3.51389,1.36309 -1.54409,-4.13241 c -1.93926,-5.19 -3.04259,-9.45628 -2.56204,-9.90675 0.20046,-0.18793 1.56597,-0.0858 3.03446,0.22699 1.4685,0.31277 4.61087,0.57544 6.98305,0.58372 7.82663,0.0273 11.31778,-1.30972 30.42996,-11.65383 11.35701,-6.14676 16.84219,-8.76397 17.93298,-8.55661 0.89108,0.16939 4.22195,4.22388 6.33843,7.71544 3.49065,5.75838 5.27063,12.15979 5.27063,18.95475 0,3.82484 -1.5893,18.04919 -3.8753,34.68371 -1.48003,10.77007 -1.6772,15.63956 -0.88648,21.89591 0.36641,2.89917 1.03,6.63973 1.47466,8.31233 1.02453,3.85396 1.04269,4.61662 0.10368,4.35315 -12.23281,-3.43291 -19.2444,-3.86232 -34.81252,-2.13209 -24.29936,2.70065 -34.53419,3.41806 -39.43365,2.76418 z m 21.35989,-1.98684 c 5.64805,-0.5519 13.50397,-1.38415 17.45761,-1.84943 8.40232,-0.98881 19.91962,-1.17314 24.85141,-0.39778 1.80738,0.28415 4.72699,0.89222 6.48807,1.35126 1.76104,0.459 3.26847,0.76676 3.34985,0.68388 0.0814,-0.0829 -0.18567,-1.47148 -0.59344,-3.08573 -2.01531,-7.97826 -2.10001,-18.55792 -0.25398,-31.73349 1.27535,-9.10271 2.93752,-22.51755 3.5448,-28.60863 1.03711,-10.40274 -2.1364,-20.20185 -9.17588,-28.33325 l -1.37989,-1.59391 -2.23724,0.89636 c -1.2305,0.49299 -4.8183,2.27659 -7.97283,3.96356 -3.15457,1.68696 -9.46412,5.05869 -14.02125,7.49273 -9.6292,5.14309 -14.20216,6.99437 -18.97152,7.68031 -3.21373,0.46221 -8.59841,0.34702 -12.47032,-0.26675 l -1.52621,-0.24194 0.78405,2.77972 c 0.43122,1.52885 1.44888,4.58796 2.26146,6.79804 0.94016,2.55706 1.33455,4.15935 1.08452,4.40616 -0.25002,0.2468 -2.16052,-0.2781 -5.2537,-1.44344 -7.29782,-2.74941 -7.6226,-2.83776 -7.3552,-2.00091 0.62513,1.95648 1.00504,8.73939 0.6578,11.74474 -0.7463,6.45922 -2.31482,9.9367 -12.0257,26.66145 -3.49619,6.02138 -6.92294,12.05589 -7.61501,13.41007 l -1.2583,2.46211 2.32061,1.79542 c 8.36476,6.47175 16.4095,9.1653 25.75498,8.62346 1.80737,-0.10478 7.90727,-0.64208 13.55531,-1.19401 z M 364.50373,490.80471 c -2.7454,-4.58106 -6.51666,-8.36533 -14.43826,-14.48812 -2.164,-1.6726 -3.93638,-3.31478 -3.93864,-3.64931 -0.004,-0.36824 1.44405,-1.28887 3.66622,-2.33333 6.07007,-2.85307 11.05075,-8.19584 13.7952,-14.79819 l 1.13771,-2.73698 2.289,0.0153 2.289,0.0153 1.92333,3.96897 c 3.15613,6.51304 8.70264,11.62778 15.22619,14.04088 1.23646,0.45736 1.94606,0.96149 1.93718,1.37625 -0.008,0.35996 -2.3624,2.38792 -5.23264,4.50655 -6.3125,4.65949 -12.06702,10.1867 -14.45884,13.88768 -0.97286,1.50534 -1.97414,2.73349 -2.22508,2.7292 -0.25094,-0.004 -1.13762,-1.14467 -1.97037,-2.53424 z m 4.26668,-2.32372 c 2.41075,-3.40149 7.10652,-7.79754 13.16464,-12.32431 2.65458,-1.98354 4.82651,-3.67365 4.82651,-3.75578 0,-0.0821 -0.99389,-0.58322 -2.20865,-1.11353 -3.23176,-1.41084 -6.34833,-3.48174 -8.64986,-5.74769 -2.40607,-2.36883 -5.68124,-7.27344 -6.67053,-9.98919 -0.66552,-1.82691 -0.79343,-1.94075 -2.18031,-1.94075 -1.38022,0 -1.51856,0.12049 -2.18922,1.90674 -2.60924,6.94948 -8.03284,12.90912 -14.53619,15.97295 -2.19424,1.03373 -2.57777,1.35316 -2.12001,1.76579 0.30734,0.27707 2.49968,2.02617 4.87186,3.88689 5.38565,4.2245 9.11369,8.00178 11.50148,11.65345 1.01665,1.55473 1.95509,2.71302 2.08539,2.57395 0.13033,-0.13909 1.07752,-1.43893 2.10489,-2.88852 z m -62.43944,-9.9302 c -0.74423,-4.72532 -2.37272,-9.01231 -5.81236,-15.30101 -12.16729,-22.24542 -11.71545,-21.16977 -11.71438,-27.88663 0,-4.05154 0.15252,-5.10168 1.1584,-8.00822 0.72595,-2.09772 1.37673,-3.34521 1.74507,-3.34521 0.32307,0 2.38742,1.47256 4.5874,3.27236 13.59537,11.12229 31.03166,19.43221 48.02472,22.88796 4.46779,0.90859 13.46351,2.22326 15.21281,2.22326 1.84073,0 -1.66558,6.72093 -5.39806,10.34714 -3.3894,3.29289 -6.97971,4.94376 -16.2543,7.47389 -4.17956,1.14018 -10.00218,2.72845 -12.93917,3.52947 -6.02119,1.64219 -10.98284,3.76264 -14.4956,6.19499 -1.30986,0.90698 -2.66383,1.64904 -3.00887,1.64904 -0.46421,0 -0.75175,-0.78975 -1.10566,-3.03704 z m 3.34405,0.42495 c 3.44527,-2.59406 9.7786,-5.05706 19.37375,-7.53442 16.51424,-4.26378 20.23998,-5.70966 24.00684,-9.31652 2.22406,-2.12957 4.9488,-6.06248 5.54815,-8.00822 0.25714,-0.83481 0.14775,-0.91269 -1.28706,-0.91662 -2.58298,-0.007 -11.84016,-1.53805 -17.26425,-2.8552 -15.83541,-3.84538 -31.84267,-11.76152 -44.15793,-21.83756 l -3.98978,-3.26435 -1.05879,3.30854 c -0.75947,2.37325 -1.06668,4.24738 -1.08669,6.62961 -0.0455,5.41729 0.88788,7.78404 8.33385,21.131 2.01108,3.60488 4.56486,8.44022 5.67512,10.74521 1.9465,4.04114 3.71527,9.68807 3.71527,11.86119 0,1.30665 0.51432,1.32012 2.19152,0.0574 z m 113.24202,0.99602 c -3.92899,-2.89367 -9.18726,-5.11005 -18.69787,-7.88118 -4.97029,-1.44822 -10.60807,-3.09666 -12.5284,-3.6632 -5.43248,-1.60272 -9.16972,-3.60097 -12.05401,-6.44516 -2.6653,-2.6282 -5.60898,-7.14949 -5.60898,-8.61497 0,-0.78324 0.29444,-0.89649 2.97806,-1.14551 19.90171,-1.84677 37.55156,-8.07146 53.70781,-18.94152 2.5981,-1.74802 6.15559,-4.36652 7.9055,-5.81888 1.7499,-1.45236 3.52522,-2.64066 3.94513,-2.64066 0.59552,0 0.96631,0.67443 1.6854,3.06548 1.85026,6.15241 1.49094,11.60772 -1.13959,17.30175 -0.64598,1.39831 -3.73207,6.92155 -6.85799,12.27389 -7.18173,12.29695 -8.3444,14.98484 -9.86588,22.80823 -0.14094,0.72478 -0.48545,1.3178 -0.76559,1.3178 -0.28014,0 -1.49675,-0.72723 -2.70359,-1.61607 z m 3.01684,-3.05363 c 1.00679,-4.87213 2.91476,-8.97632 9.44239,-20.31168 8.31035,-14.43108 8.67547,-15.31593 8.68213,-21.04056 0.004,-3.24516 -0.20836,-5.15068 -0.77869,-6.99452 -0.43113,-1.39383 -0.9108,-2.53425 -1.06594,-2.53425 -0.15514,0 -0.6342,0.38672 -1.06457,0.85939 -1.35307,1.48602 -9.62942,7.43908 -14.33784,10.313 -13.90237,8.48573 -32.19437,14.60237 -47.24841,15.79939 -1.80179,0.14326 -3.51855,0.33572 -3.81508,0.42767 -0.92144,0.28572 1.92354,4.94127 4.68599,7.66813 3.35444,3.3113 6.5673,4.78507 17.21303,7.89583 15.4681,4.51988 16.5784,4.89133 20.636,6.90383 2.20553,1.09389 4.65699,2.52941 5.44772,3.18998 0.79072,0.6606 1.47765,1.08132 1.52653,0.93496 0.0488,-0.14638 0.35338,-1.54639 0.67674,-3.11117 z M 279.75671,448.2717 c -7.3531,-1.08487 -15.03851,-1.15194 -19.41618,-0.16947 -1.86792,0.41923 -3.48844,0.67123 -3.60111,0.56 -0.11268,-0.11122 0.19466,-1.82614 0.68294,-3.81092 1.09654,-4.45699 1.1699,-11.29859 0.20394,-19.01693 -0.36283,-2.89918 -0.66137,-5.52002 -0.66343,-5.82411 -0.005,-0.67337 1.26024,-0.47332 4.62031,0.73079 7.03402,2.52069 12.55116,2.07586 22.5763,-1.82025 l 1.93821,-0.75323 1.07161,0.99378 c 1.24823,1.15756 1.20293,1.81262 -0.38062,5.50349 -1.34641,3.13824 -2.30814,7.61572 -2.30814,10.74614 0,2.97044 1.00802,7.52224 2.31286,10.44372 0.53531,1.19857 0.97327,2.43022 0.97327,2.73699 0,0.72255 -1.29416,0.67084 -8.00996,-0.32 z m 6.24535,-1.04827 c -0.11957,-0.39027 -0.60941,-1.77157 -1.08857,-3.06954 -2.21404,-5.99767 -1.90338,-13.09281 0.88824,-20.28697 1.1154,-2.87434 1.17368,-3.24495 0.59951,-3.81174 -0.57421,-0.56679 -0.84827,-0.53705 -2.81872,0.30581 -4.50678,1.92775 -7.024,2.49112 -12.16163,2.72184 -5.19156,0.23314 -8.72892,-0.30894 -11.72724,-1.79712 -0.64227,-0.31879 -1.24372,-0.50466 -1.33651,-0.41304 -0.0928,0.0916 0.12812,2.79644 0.49099,6.01073 0.75824,6.71628 0.58469,15.16067 -0.38057,18.51537 -0.33687,1.17082 -0.58296,2.12877 -0.54686,2.12877 0.0361,0 1.35952,-0.27053 2.94089,-0.60118 3.89177,-0.81373 11.53492,-0.74056 18.07359,0.173 7.11219,0.99369 7.33449,0.9976 7.06688,0.12407 z m 73.29368,1.09925 c -22.28712,-1.70579 -43.69072,-10.22733 -60.71496,-24.17287 -4.70974,-3.85801 -12.06062,-11.2062 -15.55403,-15.54831 -12.16351,-15.11861 -19.94595,-33.26893 -22.8626,-53.32059 -0.78826,-5.41904 -0.66245,-22.73981 0.20555,-28.30458 3.72553,-23.88412 14.07004,-44.33793 30.70123,-60.70438 16.8481,-16.57989 37.12386,-26.54496 61.59696,-30.27345 6.6718,-1.01645 23.3183,-1.00991 29.986,0.0117 17.11051,2.62182 31.49582,8.06992 45.18439,17.1125 25.95196,17.14369 42.89604,44.2176 47.05967,75.19375 0.81822,6.08733 0.93736,19.43261 0.22625,25.34248 -5.94142,49.3777 -44.06608,87.67482 -93.63221,94.05572 -5.87947,0.75689 -16.46285,1.04678 -22.19625,0.60796 z m 23.35815,-1.81094 c 16.14327,-2.45579 30.25156,-7.72627 43.33594,-16.18913 37.6457,-24.3489 55.81165,-68.57632 45.97291,-111.92711 -2.36756,-10.4318 -7.82092,-23.53055 -13.51047,-32.4516 -7.91193,-12.4057 -19.56337,-24.2332 -31.64091,-32.11906 -14.58047,-9.52011 -30.76802,-15.29428 -48.04674,-17.13848 -5.91644,-0.63147 -18.05699,-0.52853 -24.01378,0.20362 -24.29346,2.98594 -46.01196,13.52747 -63.175,30.66332 -21.56051,21.52635 -32.41035,49.61194 -30.86508,79.89643 1.28553,25.19418 11.66131,48.89249 29.45886,67.28417 5.60385,5.79091 11.16416,10.38836 18.26431,15.10146 5.79962,3.84983 16.01433,8.99978 22.60982,11.39917 7.24133,2.63434 17.36534,4.89405 26.34796,5.88093 4.85941,0.53388 20.19294,0.16745 25.26218,-0.60372 z m 89.54725,1.34844 c -3.94,-1.01628 -11.68395,-1.0903 -19.10067,-0.18258 -2.93698,0.35945 -5.59201,0.6552 -5.90005,0.65722 -0.68216,0.004 -0.4795,-1.24403 0.74031,-4.56084 2.12612,-5.78118 2.06515,-11.57965 -0.18726,-17.80918 -1.68021,-4.64701 -1.70526,-5.07435 -0.37752,-6.44237 1.36683,-1.4083 2.12005,-1.46256 5.04885,-0.36372 3.09307,1.16047 7.48687,2.01265 10.37716,2.01265 3.00918,0 7.62032,-0.99505 10.57991,-2.28306 2.65733,-1.15648 3.33771,-1.1998 3.33771,-0.21248 0,0.41155 -0.40092,3.55909 -0.89095,6.99453 -1.09843,7.70086 -1.17962,15.23044 -0.20644,19.14537 0.82165,3.30533 0.85006,3.94245 0.17317,3.88368 -0.28241,-0.0245 -1.8998,-0.40216 -3.59422,-0.83922 z m 2.26046,-3.40171 c -0.84377,-3.93175 -0.76265,-11.171 0.20415,-18.21861 0.45184,-3.29378 0.82153,-6.16785 0.82153,-6.38684 0,-0.44082 -0.35698,-0.35774 -3.82842,0.89097 -5.53381,1.99057 -12.52617,1.86307 -19.04932,-0.34737 l -3.3663,-1.14071 -1.02354,1.0591 c -0.73397,0.75946 -0.91993,1.24036 -0.65731,1.69982 0.20143,0.3524 0.85606,2.08583 1.45474,3.85206 2.0598,6.07684 1.81846,15.17228 -0.52465,19.77231 -0.32294,0.63401 -0.51124,1.2277 -0.41842,1.31932 0.0928,0.0916 2.83291,-0.12649 6.0891,-0.4847 6.72799,-0.74013 15.34354,-0.57622 18.65414,0.35489 1.12961,0.31769 2.09739,0.5467 2.15063,0.50889 0.0532,-0.0378 -0.17461,-1.33341 -0.50633,-2.87913 z M 237.3563,439.644 c -4.34555,-0.97936 -8.51915,-3.08892 -27.98228,-14.14367 -10.53852,-5.98571 -15.59383,-7.94365 -23.78568,-9.21228 -1.63793,-0.25366 -2.97806,-0.65655 -2.97806,-0.89531 0,-0.23877 0.9789,-1.72762 2.17526,-3.30857 4.92851,-6.51262 6.77392,-10.54241 10.40925,-22.73031 6.95416,-23.31468 8.27166,-26.80925 11.58109,-30.71796 3.04629,-3.5979 8.98701,-8.0039 10.80572,-8.01419 0.71133,-0.004 2.46251,2.0253 9.53621,11.0508 2.40557,3.06935 4.37376,5.82673 4.37376,6.12751 0,0.98549 -4.54678,15.793 -5.79592,18.87558 -1.68645,4.16184 -4.42791,8.09275 -8.67512,12.43912 l -3.60707,3.69132 5.23946,0.28351 c 10.04987,0.54382 13.16879,1.59233 25.45594,8.55783 5.94717,3.3714 8.18248,4.84602 8.39596,5.53877 0.45961,1.49131 2.05942,17.90845 1.91475,19.64897 -0.12557,1.51102 -0.21405,1.5964 -2.38964,2.3057 -3.08256,1.00502 -11.21025,1.28372 -14.67363,0.50318 z m 12.92787,-1.28843 2.97806,-0.61486 0.0103,-2.10111 c 0.006,-1.15561 -0.39589,-5.79286 -0.89235,-10.30499 l -0.90266,-8.2039 -8.65798,-4.85708 c -4.76186,-2.6714 -9.90886,-5.31996 -11.43769,-5.88568 -3.39606,-1.25663 -8.92232,-2.24552 -12.57515,-2.25026 -3.89814,-0.005 -7.03196,-0.44046 -7.03196,-0.97699 0,-0.25415 1.21316,-1.64285 2.6959,-3.08599 5.47791,-5.33168 8.87258,-10.16542 10.81267,-15.39651 0.93474,-2.52027 4.97595,-16.00086 4.97595,-16.59859 0,-0.40715 -9.07105,-12.16241 -11.41826,-14.79698 -0.83324,-0.93527 -1.5872,-1.43213 -1.95932,-1.29118 -1.68698,0.63901 -5.68136,3.74894 -8.01957,6.24384 -4.32184,4.61146 -5.43954,7.36985 -12.02886,29.68674 -3.99627,13.53475 -5.89825,17.90596 -10.49757,24.12604 l -2.09877,2.83836 3.60243,0.66686 c 8.0802,1.49575 12.43108,3.37632 27.22154,11.76577 5.30916,3.01147 11.23082,6.32051 13.15917,7.35342 8.30169,4.44666 13.86647,5.37557 22.06411,3.68309 z m 235.56779,0.20901 c -1.64189,-0.18846 -3.86004,-0.59832 -4.92921,-0.91076 l -1.94395,-0.56809 0.10836,-2.99005 c 0.10889,-3.00467 2.05123,-18.51934 2.38531,-19.05293 0.34086,-0.54444 15.18311,-8.35432 17.89951,-9.41859 4.28548,-1.67904 7.90531,-2.35749 14.08662,-2.64022 l 5.72605,-0.2619 -3.26145,-3.56855 c -4.14866,-4.53924 -6.85044,-8.55461 -8.36412,-12.43057 -1.20199,-3.07783 -5.7827,-19.38098 -5.7827,-20.58106 0,-0.70088 10.10343,-13.25088 12.4573,-15.47386 1.7481,-1.65088 2.39271,-1.57052 5.88896,0.73414 5.04664,3.32662 8.83424,7.90048 11.07284,13.37131 1.01801,2.48794 3.57774,11.18387 6.8907,23.40942 3.28643,12.1275 5.71875,17.81939 10.11835,23.67771 1.12328,1.49575 2.04238,2.99298 2.04238,3.32716 0,0.4545 -0.71453,0.67711 -2.83565,0.88342 -7.33581,0.71355 -12.98756,2.74599 -23.86422,8.58185 -23.20953,12.45305 -24.84616,13.19209 -30.86402,13.93695 -1.87742,0.23238 -3.51076,0.39883 -3.62965,0.3699 -0.11888,-0.0289 -1.55952,-0.2068 -3.20141,-0.39528 z m 8.736,-1.3755 c 4.0207,-0.82902 6.90195,-2.1059 17.25222,-7.64566 14.31116,-7.65974 21.12513,-11.0474 24.44064,-12.15101 3.20727,-1.06757 8.7272,-2.29872 10.35454,-2.30945 2.02257,-0.0133 2.03933,-0.54634 0.10002,-3.17724 -4.2081,-5.70876 -6.49739,-11.34362 -10.238,-25.20012 -6.16977,-22.85478 -7.44458,-25.8731 -13.20818,-31.272 -2.1585,-2.0219 -6.21109,-4.81569 -6.9855,-4.81569 -0.58255,0 -3.98958,3.80429 -9.44157,10.54246 l -4.10102,5.0685 1.17241,4.25754 c 3.29559,11.96762 4.15483,14.6673 5.66185,17.78902 1.84431,3.82036 2.81532,5.15008 7.66796,10.5004 1.87458,2.06685 3.40834,4.01522 3.40834,4.32973 0,0.66459 -1.85901,0.90524 -9.24349,1.19657 -7.52119,0.29671 -10.72329,1.435 -23.20248,8.24803 -3.0525,1.66652 -5.6278,3.1028 -5.7229,3.19173 -0.25186,0.23554 -2.46656,17.11448 -2.48308,18.9244 -0.0156,1.71519 -0.0425,1.69704 3.68463,2.49442 3.50525,0.74991 7.33575,0.7599 10.88361,0.0284 z M 265.09582,417.70579 c -3.47534,-0.83194 -6.49965,-2.31163 -17.37894,-8.50289 -12.4573,-7.08929 -15.18023,-8.237 -23.10566,-9.73889 -0.73424,-0.13914 -1.33499,-0.47923 -1.33499,-0.75575 0,-0.27653 0.73671,-1.47748 1.63715,-2.6688 2.9314,-3.87839 5.1767,-9.069 7.98396,-18.45716 1.4671,-4.9063 3.13703,-10.47151 3.71095,-12.36713 2.18779,-7.22585 5.30588,-11.79916 10.18358,-14.93619 2.38586,-1.53443 7.12677,-3.71587 8.07572,-3.71587 0.21418,0 0.50015,1.04918 0.6355,2.33151 0.80638,7.63862 1.2192,10.5505 2.13061,15.02915 3.4504,16.9556 11.07128,33.04912 22.10934,46.68988 1.7076,2.11026 3.04251,4.02615 2.96643,4.25755 -0.19967,0.60722 -4.46713,2.21751 -7.63127,2.87957 -3.36299,0.70368 -6.92192,0.68765 -9.98238,-0.045 z m 12.81244,-1.81557 c 1.46849,-0.49904 2.81166,-1.03238 2.9848,-1.18521 0.17314,-0.15283 -0.92041,-1.81673 -2.43006,-3.69754 -6.57412,-8.19037 -13.54315,-20.41087 -17.17922,-30.12458 -3.21224,-8.58155 -5.51155,-18.57352 -6.49058,-28.20605 l -0.50405,-4.95913 -3.86828,1.91236 c -4.9239,2.4342 -8.26644,5.64119 -10.38099,9.96001 -0.80506,1.64421 -3.0729,8.37221 -5.03974,14.95112 -3.72825,12.47089 -6.10318,18.29793 -8.94298,21.94214 l -1.45789,1.87088 3.13806,0.61453 c 5.03317,0.98562 9.16856,2.80817 19.19149,8.45799 16.74928,9.44141 17.58954,9.77522 23.9964,9.53352 3.04724,-0.11496 5.09668,-0.429 6.98304,-1.07004 z m 180.73757,0.95986 c -1.83996,-0.35722 -5.12006,-1.35851 -5.75074,-1.75548 -0.71754,-0.45165 -1.05139,0.0893 3.91714,-6.34748 12.86861,-16.67147 20.55194,-36.0446 22.4127,-56.51246 0.27345,-3.00784 0.65144,-5.64021 0.83999,-5.8497 0.20632,-0.22923 1.77556,0.33392 3.9414,1.41446 4.73697,2.36329 8.35977,5.87062 10.45016,10.11711 0.82337,1.67261 2.23815,5.68686 3.14396,8.92055 0.90582,3.23371 2.51506,8.98138 3.57611,12.77262 2.08654,7.45548 4.10577,12.23259 6.73386,15.93095 0.9188,1.29297 1.67055,2.62954 1.67055,2.97014 0,0.45823 -0.80005,0.74206 -3.07665,1.09143 -4.78694,0.73464 -9.12983,2.34216 -15.50054,5.73753 -3.2249,1.71877 -8.63614,4.60022 -12.02497,6.40322 -7.99404,4.25318 -10.41759,5.07186 -15.40377,5.20348 -2.14625,0.0566 -4.3644,0.0133 -4.9292,-0.0964 z m 9.82946,-1.62555 c 2.6325,-0.71507 6.67823,-2.68533 17.16653,-8.36001 4.24261,-2.29546 9.03723,-4.75148 10.65473,-5.45783 3.114,-1.35986 8.80409,-2.94219 10.58016,-2.94219 1.05917,0 1.48213,-0.91177 0.65661,-1.41539 -0.68068,-0.41528 -3.52664,-5.52235 -4.67539,-8.39003 -0.59697,-1.49023 -1.71896,-4.95708 -2.4933,-7.70411 -0.77435,-2.74702 -2.35351,-8.3648 -3.50924,-12.48396 -2.25008,-8.01949 -3.65742,-11.24174 -6.23961,-14.28618 -2.21033,-2.60603 -8.9476,-6.96506 -9.6672,-6.25472 -0.0965,0.0953 -0.34361,1.97066 -0.54906,4.1675 -1.94969,20.8471 -9.59931,40.33912 -22.45155,57.20886 -4.23154,5.55429 -4.22679,5.31805 -0.12368,6.14519 4.26017,0.85879 6.85713,0.80342 10.651,-0.22713 z M 180.06915,401.48671 c -8.58064,-1.31919 -16.02784,-5.11669 -21.95751,-11.1966 -2.18336,-2.2387 -10.0051,-11.9771 -20.20157,-25.15185 -3.22584,-4.16807 -7.54284,-9.32815 -9.59331,-11.46688 -3.93975,-4.1093 -10.15975,-9.00363 -14.28537,-11.24072 -1.36075,-0.73784 -2.47582,-1.61523 -2.47795,-1.94975 0,-0.33663 1.31979,-1.33245 2.96048,-2.23014 4.66767,-2.55388 10.47986,-7.06958 14.71023,-11.42896 2.13878,-2.20401 7.21414,-8.10645 11.2786,-13.11656 16.63237,-20.50228 20.68418,-24.84139 26.16011,-28.01508 5.17468,-2.9991 13.0173,-5.22025 18.43211,-5.22025 l 1.9663,0 1.03863,3.14247 c 0.57125,1.72836 2.53669,8.61644 4.36768,15.30686 3.97377,14.51999 5.57949,19.25856 7.74346,22.85138 2.19,3.63601 6.00356,7.65599 9.50014,10.01433 1.58679,1.07026 2.8851,2.16941 2.8851,2.44253 0,0.65979 -1.82101,1.68669 -7.17199,4.04442 l -4.43781,1.95538 5.09323,2.45832 c 5.48805,2.6489 7.75364,4.05888 7.74074,4.81743 -0.005,0.26359 -0.95676,1.02664 -2.11611,1.69569 -2.98291,1.72132 -7.72287,6.39486 -9.86987,9.73151 -2.98213,4.63457 -3.51995,6.11754 -9.5675,26.38047 -3.08791,10.34629 -4.79518,15.29825 -5.60735,16.2643 -0.54722,0.65084 -1.90074,0.63271 -6.59047,-0.0883 z m 6.5473,-2.51536 c 1.05107,-2.46511 2.44579,-6.76904 4.82898,-14.90137 4.91976,-16.78816 6.76172,-21.91664 9.2186,-25.66693 2.12223,-3.23946 5.77383,-7.02131 8.91784,-9.23594 l 2.67224,-1.88234 -1.36929,-0.8306 c -0.7531,-0.45682 -3.64281,-1.91896 -6.42152,-3.24919 -3.52434,-1.68716 -5.01506,-2.60444 -4.92921,-3.03313 0.0694,-0.34667 2.43934,-1.64814 5.43733,-2.98598 2.92281,-1.30431 5.47043,-2.52565 5.66131,-2.71409 0.19093,-0.18844 -0.7563,-1.10664 -2.10489,-2.04044 -2.93707,-2.03375 -7.12003,-6.46257 -9.00784,-9.53734 -2.67598,-4.35851 -3.86601,-7.91189 -9.27746,-27.70265 -1.45169,-5.30911 -2.98406,-10.56527 -3.40526,-11.68033 l -0.76579,-2.0274 -2.03868,0.12053 c -6.29332,0.37208 -13.46232,2.79072 -18.67475,6.3004 -4.30595,2.89935 -8.00417,7.01194 -24.48973,27.23388 -11.06254,13.56982 -16.12023,18.39198 -24.54404,23.40115 l -3.23323,1.92262 1.32941,0.71895 c 6.84457,3.70159 16.06083,12.28484 23.19421,21.60115 7.64824,9.98874 19.1901,24.42454 21.30407,26.64574 6.33465,6.65589 16.15679,11.07202 25.38673,11.41412 1.40523,0.0521 1.53639,-0.0541 2.31097,-1.87081 z m 358.14088,-2.0274 c -0.57125,-1.72836 -2.53673,-8.61644 -4.36773,-15.30686 -3.97376,-14.51999 -5.57945,-19.25856 -7.74345,-22.85138 -2.19001,-3.63601 -6.00357,-7.65598 -9.5001,-10.01432 -1.58684,-1.07027 -2.88515,-2.16942 -2.88515,-2.44255 0,-0.65977 1.82102,-1.68668 7.172,-4.04441 l 4.4378,-1.95537 -5.09318,-2.45832 c -5.4881,-2.64891 -7.75368,-4.05889 -7.74079,-4.81744 0.005,-0.26359 0.95676,-1.02664 2.11615,-1.69568 2.98053,-1.71997 7.72111,-6.39287 9.87246,-9.73152 2.93103,-4.54858 4.03456,-7.61635 9.98785,-27.76538 2.7859,-9.42908 4.55491,-14.37656 5.38294,-15.0549 0.48335,-0.396 1.56399,-0.36605 5.25092,0.14551 7.4293,1.03079 13.40785,3.39815 18.74219,7.42143 4.20675,3.17282 5.50116,4.71416 26.61797,31.69637 7.42293,9.48466 14.7596,16.22884 21.81863,20.05655 1.36071,0.73785 2.47578,1.61524 2.47791,1.94975 0.004,0.33621 -1.31905,1.3336 -2.95419,2.23014 -4.76732,2.61393 -10.51326,7.06967 -14.70292,11.40151 -2.14626,2.2191 -7.22774,8.1339 -11.29215,13.14401 -16.63242,20.50228 -20.68423,24.84139 -26.16017,28.01508 -5.17468,2.9991 -13.01729,5.22025 -18.4321,5.22025 l -1.96631,0 -1.03858,-3.14247 z m 8.15956,1.48179 c 4.92416,-0.8173 10.48726,-3.01925 14.58224,-5.77183 4.28746,-2.88198 8.65207,-7.75002 25.32823,-28.2497 10.15844,-12.48763 15.42912,-17.46591 23.69683,-22.38228 l 3.22456,-1.91746 -1.95997,-1.12959 c -7.35811,-4.24074 -15.176,-11.60491 -22.61031,-21.29802 -7.22022,-9.41404 -18.78209,-23.8734 -21.03588,-26.30764 -6.02846,-6.5112 -14.66751,-10.63788 -24.13331,-11.52794 l -2.90766,-0.2734 -0.84105,1.97157 c -1.07004,2.50838 -2.45301,6.77149 -4.84881,14.94691 -4.91972,16.78816 -6.76168,21.91665 -9.21861,25.66693 -2.12222,3.23946 -5.77382,7.0213 -8.91779,9.23594 l -2.67229,1.88234 1.36929,0.8306 c 0.7531,0.45683 3.64281,1.91897 6.42157,3.24919 3.5243,1.68716 5.01501,2.60445 4.9292,3.03313 -0.0694,0.34667 -2.43934,1.64815 -5.43732,2.98598 -2.92286,1.30431 -5.47047,2.52565 -5.66136,2.71409 -0.19088,0.18845 0.75631,1.10665 2.1049,2.04045 2.9371,2.03374 7.12007,6.46256 9.00787,9.53733 2.61055,4.25199 4.4284,9.71941 9.52159,28.63777 1.77726,6.60152 3.15337,11.10039 3.74024,12.22797 0.37638,0.7232 1.44865,0.70583 6.31784,-0.10238 z M 228.20544,356.79225 c -4.72025,-6.23125 -10.31954,-11.91171 -14.06878,-14.27273 -1.52497,-0.96033 -2.76911,-1.94873 -2.76479,-2.19644 0.005,-0.24771 1.16107,-1.11578 2.57058,-1.92904 4.52025,-2.60809 8.47499,-6.4536 14.67375,-14.26838 1.69442,-2.13615 3.35802,-3.88572 3.69691,-3.88793 0.37285,-0.002 1.30291,1.41983 2.35521,3.60165 3.35338,6.95268 9.90615,12.2695 18.3058,14.853 2.34191,0.72031 2.37982,0.75597 2.25922,2.12504 -0.11641,1.32155 -0.26987,1.44812 -3.01483,2.4864 -8.97912,3.39635 -15.16519,9.13284 -18.05354,16.74148 -0.46335,1.22052 -0.97405,1.92098 -1.39419,1.91222 -0.36468,-0.007 -2.41909,-2.33197 -4.56534,-5.16527 z m 5.50559,1.37693 c 3.26063,-7.27793 9.71489,-13.07405 17.4553,-15.67533 3.47748,-1.16867 3.8392,-2.02856 1.17168,-2.78533 -3.21155,-0.91111 -9.11263,-4.06963 -11.74992,-6.28908 -3.13891,-2.64163 -5.36112,-5.477 -7.08175,-9.03582 -1.04721,-2.166 -1.37081,-2.54458 -1.78885,-2.09272 -0.28067,0.30341 -2.05371,2.46754 -3.94003,4.80918 -4.31277,5.35365 -7.82405,8.74918 -11.68,11.29502 l -3.01721,1.99204 2.79617,1.88594 c 3.55647,2.39873 8.24936,7.24025 12.90335,13.31194 2.00857,2.62042 3.72003,4.76439 3.80321,4.76439 0.0832,0 0.59081,-0.9811 1.12805,-2.18023 z m 264.46929,-1.46958 c -2.9377,-6.09028 -8.80367,-11.32993 -15.43367,-13.78581 -2.46522,-0.91316 -2.7617,-1.14414 -2.98937,-2.32885 -0.32087,-1.66967 0.0955,-3.34787 0.83066,-3.34787 0.31162,0 2.23263,-0.82329 4.26892,-1.82954 6.31207,-3.11916 11.47461,-8.67764 13.83538,-14.89649 0.4669,-1.22994 0.97078,-1.91812 1.39419,-1.90416 0.36467,0.0121 2.78875,2.76545 5.38685,6.11871 5.2363,6.75826 9.12232,10.65392 13.26659,13.29957 1.51434,0.96674 2.7498,1.96039 2.74545,2.2081 -0.005,0.24772 -1.16108,1.11579 -2.57058,1.92904 -4.52025,2.6081 -8.47499,6.45361 -14.67376,14.26838 -1.69441,2.13615 -3.35802,3.88572 -3.6969,3.88793 -0.37305,0.002 -1.30568,-1.42546 -2.36376,-3.61901 z m 6.89945,-3.24334 c 4.31273,-5.35364 7.82401,-8.74918 11.68,-11.29503 l 3.01717,-1.99202 -2.79618,-1.88594 c -3.55642,-2.39874 -8.24935,-7.24026 -12.90334,-13.31196 -2.00856,-2.62041 -3.72,-4.76438 -3.8032,-4.76438 -0.0832,0 -0.59082,0.9811 -1.12804,2.18023 -3.03729,6.77945 -8.76855,12.24492 -15.78699,15.05488 -2.05564,0.82301 -2.34156,1.0781 -2.45548,2.1907 -0.095,0.92822 0.0669,1.32324 0.61615,1.50276 0.4098,0.13395 2.40869,1.04478 4.44198,2.02407 6.15102,2.96251 10.6384,7.32392 13.38902,13.01314 1.04722,2.16601 1.37082,2.54459 1.78883,2.09273 0.28067,-0.30341 2.05371,-2.46754 3.94008,-4.80918 z m -253.883,-19.58404 c -6.46909,-2.79953 -10.31099,-6.20436 -12.89032,-11.42382 -0.77455,-1.56733 -2.35333,-6.22531 -3.50837,-10.35107 -1.15507,-4.12575 -2.76405,-9.87343 -3.57552,-12.77261 -1.66361,-5.9437 -3.81171,-10.84149 -6.27578,-14.30902 -0.91881,-1.29299 -1.67055,-2.62955 -1.67055,-2.97015 0,-0.45823 0.80009,-0.74206 3.07665,-1.09143 4.78695,-0.73464 9.12983,-2.34216 15.50054,-5.73753 3.22489,-1.71877 8.63613,-4.60022 12.02496,-6.40322 8.17349,-4.34864 10.53532,-5.15417 14.993,-5.11356 2.84572,0.0258 4.12702,0.2652 6.92714,1.29359 3.79623,1.39423 7.03895,3.12395 7.03895,3.75468 0,0.22461 -1.22421,1.90473 -2.72051,3.7336 -3.69999,4.52237 -9.05865,12.56279 -11.81671,17.7303 -6.916,12.958 -11.68127,29.20107 -12.66481,43.16967 -0.0745,1.05845 -0.32718,1.65492 -0.73014,1.72369 -0.33888,0.0578 -2.00771,-0.49707 -3.70853,-1.23312 z m 3.70459,-4.33926 c 2.28193,-20.37711 10.89551,-41.06599 23.82412,-57.22293 l 2.80521,-3.50564 -3.14623,-1.43767 c -4.09259,-1.87015 -7.10569,-2.71051 -9.71846,-2.71051 -4.05805,0 -7.16263,1.30157 -20.99131,8.80049 -4.04339,2.19262 -8.84082,4.65469 -10.66101,5.47124 -3.37946,1.51611 -9.12569,3.1639 -11.03321,3.1639 -1.32369,0 -1.33729,0.50769 -0.058,2.16328 2.62785,3.40093 5.12297,9.65276 7.63263,19.1244 5.0731,19.14613 6.75359,22.58273 13.05891,26.70504 2.25564,1.47468 7.48586,4.02259 7.74292,3.77197 0.0374,-0.0364 0.28224,-1.98193 0.54447,-4.32357 z m 224.54891,2.93972 c -0.11002,-0.39027 -0.32425,-1.98684 -0.47607,-3.54794 -1.9993,-20.55856 -12.33962,-43.61337 -26.76089,-59.66616 -1.4324,-1.59444 -2.60436,-3.07732 -2.60436,-3.29526 0,-0.21796 0.87802,-0.76597 1.95114,-1.21781 7.44628,-3.13526 14.13735,-3.23812 20.82157,-0.3201 1.28691,0.56181 7.04372,3.68331 12.79292,6.93667 12.82889,7.25962 15.10944,8.22143 23.07138,9.73025 0.73425,0.13914 1.335,0.47923 1.335,0.75575 0,0.27653 -0.73671,1.47748 -1.63716,2.6688 -2.9314,3.87839 -5.17668,9.069 -7.98395,18.45716 -1.46709,4.9063 -3.13703,10.47151 -3.71096,12.36713 -2.62246,8.66158 -6.90576,13.91489 -13.90191,17.05019 -2.14917,0.96315 -2.64419,0.97705 -2.89671,0.0813 z m 9.36591,-6.00511 c 3.55021,-3.50451 4.85993,-6.46737 9.04087,-20.45243 3.72827,-12.47089 6.10322,-18.29793 8.94297,-21.94213 l 1.45794,-1.87089 -3.1381,-0.61453 c -5.04633,-0.98821 -9.20448,-2.82324 -19.20318,-8.47451 -16.38488,-9.26075 -18.02813,-9.90549 -24.36884,-9.56112 -2.72132,0.1478 -4.86476,0.53669 -6.97365,1.26526 -1.6746,0.57854 -3.12059,1.12677 -3.21331,1.21829 -0.0927,0.0916 1.28237,1.87137 3.05578,3.95521 5.95427,6.99657 9.82543,12.78783 14.11733,21.11954 6.11371,11.8683 9.85846,23.89608 11.48796,36.89821 l 0.49497,3.94949 2.88429,-1.49614 c 1.68813,-0.87567 3.9338,-2.53214 5.41497,-3.99425 z m -274.78221,3.50156 c -5.79835,-3.32612 -10.51663,-8.92808 -12.80838,-15.20729 -0.75421,-2.06649 -3.9745,-13.2364 -6.45459,-22.38837 -3.28638,-12.12751 -5.71874,-17.81938 -10.1183,-23.67771 -1.12333,-1.49576 -2.04242,-2.99298 -2.04242,-3.32716 0,-0.45451 0.71453,-0.67711 2.83565,-0.88342 7.33581,-0.71355 12.98759,-2.74599 23.86421,-8.58185 23.06639,-12.37623 24.88769,-13.20301 30.63761,-13.90767 3.49583,-0.42842 9.03174,-0.007 12.08218,0.91838 l 1.84845,0.56113 -0.10836,2.98777 c -0.10889,3.00324 -2.05141,18.51738 -2.38528,19.05065 -0.34086,0.54444 -15.18311,8.35432 -17.89951,9.4186 -4.23686,1.65996 -7.86697,2.33793 -14.09108,2.63167 l -5.73053,0.27044 3.17626,3.44658 c 4.10985,4.45968 6.60181,8.14746 8.29988,12.28291 1.28615,3.13217 5.94105,19.46293 5.94105,20.84285 0,0.68724 -8.32547,11.14014 -11.64406,14.61947 -1.11671,1.17082 -2.32708,2.12706 -2.68967,2.12497 -0.36258,-0.002 -1.5835,-0.53397 -2.71311,-1.18195 z m 5.42812,-2.76768 c 1.33758,-1.50534 4.2774,-5.01781 6.53297,-7.80548 l 4.10101,-5.0685 -1.17241,-4.25754 c -5.12173,-18.59928 -5.773,-19.99289 -13.13149,-28.09931 -1.98363,-2.18529 -3.60666,-4.22685 -3.60666,-4.53679 0,-0.68689 1.68735,-0.91737 8.62612,-1.1783 7.9513,-0.29901 10.81155,-1.25073 22.20706,-7.38916 5.24101,-2.82317 7.44963,-4.22504 7.57384,-4.80733 0.50878,-2.38466 2.30367,-17.71557 2.18832,-18.69122 -0.11727,-0.99206 -0.40132,-1.20973 -2.1886,-1.67702 -3.67937,-0.96201 -8.33776,-1.1027 -12.03376,-0.36343 -4.39348,0.87878 -6.67488,1.87889 -17.54148,7.68985 -14.37414,7.68663 -21.13315,11.04578 -24.44064,12.14671 -3.20723,1.06757 -8.72716,2.29872 -10.35454,2.30945 -2.02258,0.0133 -2.03934,0.54634 -0.10002,3.17724 4.20814,5.70876 6.49739,11.34362 10.23804,25.20012 6.16972,22.85478 7.44454,25.8731 13.20817,31.27201 2.15846,2.02189 6.21105,4.81569 6.98547,4.81569 0.26215,0 1.57102,-1.23165 2.9086,-2.73699 z m 292.89619,0 c -5.31833,-6.48354 -10.99267,-13.94002 -10.99267,-14.44513 0,-0.98549 4.54678,-15.793 5.79593,-18.87558 1.68648,-4.16184 4.4279,-8.09275 8.67511,-12.43912 l 3.60707,-3.69132 -5.23946,-0.28351 c -6.33756,-0.34293 -10.41648,-1.122 -14.38271,-2.74705 -2.62319,-1.07478 -18.18232,-9.59824 -19.16021,-10.49617 -0.40724,-0.37395 -2.25285,-16.33382 -2.28109,-19.7257 -0.0209,-2.51089 0.11146,-2.61249 4.59436,-3.52653 6.03087,-1.22968 12.49028,-0.6233 17.67876,1.65959 2.75058,1.21024 10.74839,5.56303 22.8298,12.42508 10.53851,5.98571 15.59387,7.94366 23.78567,9.21228 1.63794,0.25366 2.97807,0.65655 2.97807,0.89531 0,0.23877 -0.97886,1.72763 -2.17526,3.30858 -4.92847,6.51261 -6.77392,10.5424 -10.40921,22.73029 -6.95417,23.31469 -8.27166,26.80927 -11.58113,30.71796 -3.04629,3.59791 -8.98697,8.00391 -10.80568,8.0142 -0.36973,0.002 -1.68255,-1.22784 -2.91735,-2.73318 z m 5.85425,0.0505 c 4.99259,-3.25651 9.0561,-8.16742 11.19764,-13.5327 0.5786,-1.44959 2.55308,-7.65343 4.38777,-13.78631 6.28687,-21.01534 7.62692,-24.37522 12.28896,-30.81193 l 2.49303,-3.44206 -4.40379,-0.87023 c -7.90526,-1.56211 -11.65753,-3.23104 -27.61214,-12.2812 -12.47533,-7.07655 -17.25793,-9.4695 -20.74374,-10.37897 -3.20595,-0.83646 -9.52058,-0.82854 -13.2851,0.0167 l -2.94021,0.66013 -0.0103,2.09626 c -0.006,1.15295 0.39522,5.78181 0.89084,10.28635 l 0.90113,8.19009 8.6595,4.87252 c 4.76272,2.67988 9.91038,5.33464 11.43924,5.89947 3.39869,1.25562 8.92552,2.2439 12.57514,2.24864 3.8981,0.005 7.03193,0.44046 7.03193,0.97699 0,0.25416 -1.21316,1.64285 -2.69587,3.086 -5.47795,5.33167 -8.87257,10.16541 -10.8127,15.3965 -0.93854,2.53056 -4.97598,16.00199 -4.97598,16.60297 0,0.21651 2.24661,3.27502 4.99243,6.79671 6.03043,7.73435 7.40851,9.36503 7.9522,9.40985 0.22897,0.0189 1.43046,-0.62719 2.66999,-1.43572 z M 282.22132,263.59758 c -3.73889,-2.00912 -8.39522,-3.59964 -11.70687,-3.99889 -2.71443,-0.32724 -7.66487,0.59332 -10.98498,2.04273 -2.71024,1.18316 -3.39187,1.23123 -3.39187,0.2391 0,-0.41155 0.39931,-3.55909 0.8873,-6.99452 1.13499,-7.99033 1.19463,-14.84221 0.16817,-19.33029 -0.42169,-1.8439 -0.67456,-3.44356 -0.56189,-3.55478 0.11267,-0.11122 1.84997,0.19216 3.86064,0.67417 4.51511,1.0824 11.4459,1.15482 19.26489,0.2013 2.93699,-0.35816 5.57103,-0.65286 5.85344,-0.65489 0.73876,-0.005 0.63287,1.24739 -0.27805,3.28999 -1.32711,2.97571 -2.22172,8.271 -1.94026,11.48429 0.33732,3.85039 1.63066,8.25414 3.58234,12.19757 0.88771,1.79366 1.61403,3.44874 1.61403,3.67795 0,0.54319 -2.18877,2.61128 -2.69246,2.54397 -0.21355,-0.0285 -1.86706,-0.84651 -3.67443,-1.8177 z m 3.93593,-3.33584 c -0.69724,-1.3635 -1.74876,-3.89761 -2.33673,-5.63135 -2.03963,-6.0146 -1.78787,-15.13493 0.54418,-19.71325 0.32295,-0.63401 0.51124,-1.2277 0.41845,-1.31933 -0.0928,-0.0917 -2.8329,0.1265 -6.08913,0.48471 -6.80387,0.74848 -15.35834,0.57713 -18.75682,-0.37569 -1.18609,-0.33254 -2.15653,-0.57546 -2.15653,-0.53981 0,0.0356 0.27407,1.34201 0.60905,2.90303 0.85419,3.9808 0.76928,10.96351 -0.22285,18.33309 -0.46539,3.45668 -0.74928,6.38048 -0.63093,6.49733 0.11838,0.11684 1.19229,-0.17025 2.38651,-0.63797 3.79656,-1.48697 5.91657,-1.81593 10.11428,-1.56946 4.49289,0.2638 7.18925,1.06571 12.38997,3.68481 3.32036,1.67214 3.52845,1.72414 4.24491,1.06066 0.72833,-0.67448 0.71124,-0.78019 -0.51436,-3.17677 z m 159.03595,1.69923 c -1.21201,-0.84913 -1.16715,-1.56428 0.29224,-4.65924 3.55069,-7.52997 3.75046,-15.43102 0.57142,-22.60009 -1.16461,-2.62633 -1.20687,-3.29476 -0.2083,-3.29476 0.41693,0 3.60551,0.39413 7.08574,0.87585 8.09451,1.12041 15.03574,1.17926 19.58235,0.16602 1.86795,-0.41628 3.48846,-0.66587 3.60113,-0.55464 0.11268,0.11122 -0.19465,1.82614 -0.68295,3.81092 -1.09652,4.45699 -1.16989,11.29859 -0.20393,19.01693 0.36283,2.89918 0.66137,5.49932 0.66342,5.77809 0.005,0.72848 -1.26221,0.62499 -3.33288,-0.27212 -2.24899,-0.97436 -7.52472,-2.05939 -10.01332,-2.05939 -2.94452,0 -7.88672,1.1403 -11.70687,2.70109 -4.5149,1.84465 -4.56029,1.85341 -5.64805,1.09134 z m 3.17692,-1.35627 c 7.40425,-3.72874 18.73989,-4.33868 24.79342,-1.33407 0.64228,0.31879 1.24372,0.50466 1.33654,0.41305 0.0928,-0.0917 -0.12815,-2.79645 -0.49103,-6.01074 -0.75823,-6.71628 -0.58466,-15.16067 0.38059,-18.51537 0.33688,-1.17082 0.58297,-2.12877 0.54685,-2.12877 -0.0361,0 -1.35951,0.27053 -2.94088,0.60118 -4.03938,0.84459 -11.32169,0.759 -18.67067,-0.21946 -3.44816,-0.45909 -6.366,-0.73934 -6.48407,-0.62279 -0.11808,0.11656 0.17028,1.17643 0.6408,2.35526 1.48282,3.71509 1.83513,5.67133 1.80997,10.0502 -0.0267,4.65205 -0.87113,8.59686 -2.72445,12.7278 -0.81716,1.82142 -0.96133,2.51898 -0.60759,2.93973 0.58465,0.69538 0.50438,0.70391 2.41052,-0.25602 z m -157.87973,-3.14575 c -2.6775,-5.22452 -3.72011,-12.00371 -2.57999,-16.77536 0.92838,-3.88545 1.95414,-5.96098 8.6533,-17.50899 7.38638,-12.73262 8.37756,-15.02254 9.90726,-22.88829 0.14097,-0.7248 0.48548,-1.31781 0.76563,-1.31781 0.28014,0 1.49675,0.72724 2.70358,1.61607 3.92899,2.89368 9.18726,5.11006 18.69784,7.88119 4.97028,1.44822 10.60806,3.09664 12.5284,3.6632 9.2819,2.73838 14.3361,6.95913 17.72797,14.80462 1.86517,4.31413 1.93697,4.21669 -3.53005,4.78975 -20.2383,2.12139 -39.73565,9.92083 -56.48012,22.59345 -2.161,1.63549 -4.37722,3.44491 -4.92493,4.02091 -1.48045,1.55696 -2.33107,1.34149 -3.46889,-0.87874 z m 6.35633,-3.06158 c 15.77034,-12.61064 36.58983,-21.23283 56.98557,-23.60003 2.56072,-0.29721 4.7642,-0.64729 4.89659,-0.77796 0.13235,-0.13067 -0.64367,-1.99608 -1.72453,-4.14533 -2.49068,-4.95265 -5.71295,-8.24492 -10.1395,-10.35975 -1.66566,-0.79578 -6.91021,-2.57943 -11.65457,-3.96365 -15.19534,-4.43344 -16.37133,-4.82081 -20.13018,-6.63081 -2.03186,-0.9784 -4.54719,-2.42387 -5.58959,-3.21214 l -1.89528,-1.43322 -0.62252,3.09769 c -1.02092,5.07998 -2.84732,9.03954 -9.49176,20.57772 -8.39165,14.57223 -8.68732,15.29525 -8.68732,21.2433 -4e-5,4.77304 0.31896,6.26445 2.36582,11.06199 0.73346,1.71918 0.90705,1.87988 1.53302,1.41919 0.38822,-0.28575 2.25762,-1.7604 4.15425,-3.277 z m -103.7611,2.04788 c -6.24485,-7.17009 -9.6538,-15.88748 -9.6538,-24.68677 0,-4.16413 1.50932,-17.80326 3.8753,-35.02011 1.48007,-10.77009 1.6772,-15.63957 0.88647,-21.89591 -0.3664,-2.89918 -1.03,-6.63973 -1.47465,-8.31233 -1.02454,-3.85397 -1.04269,-4.61664 -0.10368,-4.35313 12.53308,3.51715 19.10014,3.86457 36.66097,1.93952 34.80939,-3.81586 38.58052,-3.75121 48.26514,0.82751 4.16822,1.97065 10.47456,6.60985 10.47456,7.70548 0,1.14697 -2.02898,4.96762 -9.70897,18.28211 -7.30439,12.6634 -8.83351,15.67302 -10.05772,19.79579 -1.16128,3.91103 -1.42877,9.99543 -0.62317,14.17741 0.36361,1.88771 0.51181,3.5796 0.32931,3.75974 -0.38456,0.37959 -4.10176,-0.69901 -9.12626,-2.6481 l -3.51391,-1.36308 1.54408,4.13241 c 1.93927,5.19 3.04259,9.45628 2.56207,9.90675 -0.20049,0.18793 -1.56601,0.0858 -3.0345,-0.22699 -4.03915,-0.86028 -10.65382,-0.7593 -14.58223,0.22264 -3.77606,0.94384 -11.52366,4.65068 -24.23527,11.59527 -8.72132,4.76465 -15.19172,7.88508 -16.35021,7.88508 -0.34792,0 -1.30801,-0.77548 -2.13353,-1.72329 z m 6.10228,-1.04222 c 1.8418,-0.85199 6.21289,-3.10713 9.71357,-5.01142 19.54336,-10.63125 23.64006,-12.48091 29.51436,-13.32576 3.21372,-0.46221 8.59843,-0.34702 12.47032,0.26675 l 1.52621,0.24194 -0.78404,-2.77972 c -0.43122,-1.52884 -1.4489,-4.58796 -2.26147,-6.79804 -0.94017,-2.55706 -1.33455,-4.15935 -1.08451,-4.40616 0.25003,-0.24681 2.16051,0.2781 5.25371,1.44344 7.29781,2.74942 7.62261,2.83776 7.3552,2.0009 -0.62515,-1.95647 -1.00503,-8.73939 -0.65781,-11.74473 0.74629,-6.45923 2.31484,-9.9367 12.02571,-26.66146 3.49616,-6.02137 6.92294,-12.0559 7.615,-13.41005 l 1.25831,-2.4621 -2.32063,-1.79544 c -5.00746,-3.87423 -9.86396,-6.35443 -15.07503,-7.6988 -5.81228,-1.49949 -14.84907,-1.04024 -41.69287,2.11878 -8.40229,0.9888 -19.91962,1.17314 -24.85142,0.39776 -1.80737,-0.28415 -4.72698,-0.89221 -6.48802,-1.35124 -1.76108,-0.45902 -3.26852,-0.76677 -3.34989,-0.68388 -0.0814,0.0829 0.18567,1.47147 0.59344,3.08573 2.08904,8.27003 2.10156,18.45348 0.0411,33.35542 -3.58267,25.9104 -4.10262,33.1842 -2.76372,38.66387 0.89868,3.67811 2.49426,7.61314 4.2988,10.6019 1.83227,3.03469 5.34519,7.50138 5.8996,7.50138 0.22847,0 1.92235,-0.69708 3.76415,-1.54907 z m 238.30341,-0.12462 c -6.80814,-5.61832 -19.29821,-12.77358 -28.86453,-16.53571 -9.78205,-3.84699 -24.9431,-7.28549 -32.33978,-7.3346 -2.75707,-0.0183 -3.24289,-0.3703 -2.86995,-2.07933 0.45825,-2.09997 2.26448,-6.38912 3.74698,-8.89783 2.96836,-5.02311 6.38373,-6.9564 17.81287,-10.08309 4.17956,-1.14341 10.00219,-2.7343 12.93917,-3.53531 6.02123,-1.64219 10.98289,-3.76266 14.49565,-6.195 1.30981,-0.90697 2.66382,-1.64904 3.00887,-1.64904 0.4642,0 0.75174,0.78977 1.10566,3.03705 0.74423,4.72532 2.37271,9.01231 5.81235,15.301 12.16821,22.2471 11.71591,21.17028 11.71332,27.88664 -0.002,4.63639 -0.20223,5.6867 -1.91523,10.03562 -0.54758,1.39019 -1.07135,2.12091 -1.50963,2.10613 -0.36913,-0.0125 -1.78022,-0.9379 -3.13575,-2.05653 z m 4.5366,-3.36649 c 0.74674,-2.3041 1.05004,-4.15684 1.07004,-6.53658 0.0457,-5.44162 -0.79426,-7.55841 -8.56055,-21.57226 -2.13225,-3.84758 -4.68357,-8.68292 -5.66957,-10.74522 -1.75895,-3.67896 -3.49415,-9.35014 -3.49415,-11.41993 0,-1.30665 -0.51428,-1.3201 -2.19149,-0.0573 -1.98544,1.49488 -7.46659,4.05845 -11.15845,5.21886 -1.80737,0.56809 -7.16788,2.06161 -11.91224,3.31892 -4.74437,1.25731 -9.98062,2.73327 -11.63614,3.27991 -5.36983,1.77306 -8.90206,4.64125 -11.15861,9.06088 -0.97746,1.91443 -2.8782,6.71638 -2.8782,7.2714 0,0.18293 2.17193,0.5573 4.82651,0.83194 19.67029,2.03507 38.46654,9.062 54.32396,20.30885 2.14626,1.52223 4.54925,3.31148 5.33998,3.97611 1.6937,1.42361 1.68279,1.43394 3.09891,-2.93556 z m 89.11832,2.87365 c -2.25922,-1.18201 -8.7288,-4.7629 -14.37685,-7.95753 -15.35986,-8.68779 -18.53737,-9.9658 -25.87833,-10.40835 -2.97043,-0.17909 -5.0703,-0.067 -7.58462,0.40498 -1.91233,0.35894 -3.62628,0.50522 -3.80877,0.32507 -0.38453,-0.37957 0.70813,-4.04894 2.68263,-9.00879 l 1.38086,-3.46866 -4.1863,1.52421 c -5.25768,1.9143 -9.57958,3.00343 -10.03594,2.52907 -0.19037,-0.19789 -0.0869,-1.54582 0.22995,-2.99541 0.31685,-1.44959 0.58295,-4.5515 0.59133,-6.89315 0.0278,-7.76752 -1.19338,-10.8743 -11.79429,-30.0055 -6.48679,-11.70654 -8.89488,-16.63193 -8.67716,-17.7479 0.1694,-0.86828 4.29724,-4.16688 7.81352,-6.24386 5.83348,-3.44569 12.31837,-5.20277 19.20192,-5.20277 3.87472,0 18.28456,1.56886 35.136,3.8254 10.91051,1.461 15.84349,1.65562 22.18142,0.87507 2.93699,-0.3617 6.72631,-1.01675 8.42073,-1.45566 3.90422,-1.01135 4.67683,-1.02927 4.40991,-0.10229 -3.56303,12.37175 -3.91498,18.85425 -1.96482,36.18906 3.86343,34.34182 3.80182,38.07827 -0.78374,47.53084 -2.15349,4.43912 -6.73511,10.45587 -7.95295,10.44405 -0.49325,-0.005 -2.74528,-0.9758 -5.0045,-2.15782 z m 7.03082,-1.28005 c 3.62699,-4.48764 6.20973,-9.46613 7.57278,-14.59726 1.52263,-5.73198 1.05858,-14.64225 -2.14355,-41.1562 -1.0017,-8.29415 -1.18843,-19.6632 -0.40296,-24.53152 0.28786,-1.7841 0.90385,-4.66615 1.36888,-6.40454 0.46499,-1.73839 0.77676,-3.22642 0.6928,-3.30674 -0.084,-0.0804 -1.49068,0.18328 -3.12598,0.58579 -8.065,1.98513 -19.2207,2.07515 -32.1473,0.25944 -15.46488,-2.17226 -28.67381,-3.60605 -33.27214,-3.61163 -8.66945,-0.0105 -15.79697,2.53945 -23.31103,8.3398 -1.41202,1.08998 -2.5673,2.20285 -2.5673,2.47306 0,0.79364 2.81437,6.31513 8.08262,15.85726 8.33675,15.09993 8.72215,15.8405 10.16315,19.52901 2.2326,5.71474 2.78099,12.20325 1.62957,19.28103 l -0.24509,1.50656 2.81597,-0.77396 c 1.54878,-0.42567 4.64778,-1.43022 6.88668,-2.23234 2.5904,-0.92806 4.21359,-1.31738 4.46362,-1.07057 0.25002,0.24681 -0.28173,2.13271 -1.46227,5.18608 -2.78526,7.20388 -2.87477,7.52448 -2.02699,7.26053 1.97009,-0.61339 8.84849,-0.99221 11.83052,-0.65154 6.6384,0.75836 10.07547,2.24639 25.84419,11.18879 12.39744,7.03057 17.18526,9.54521 17.48204,9.18185 0.12824,-0.15702 0.97056,-1.19783 1.87179,-2.3129 z M 364.40198,230.5159 c -3.41138,-10.66335 -9.44386,-17.63452 -17.99829,-20.79884 -1.23641,-0.45737 -1.94601,-0.96149 -1.93714,-1.37624 0.008,-0.35998 2.36236,-2.38793 5.23264,-4.50656 6.3125,-4.6595 12.06702,-10.1867 14.45884,-13.88768 0.97286,-1.50534 1.97415,-2.73349 2.22508,-2.72922 0.25094,0.004 1.13762,1.14469 1.97037,2.53424 2.74541,4.58108 6.51666,8.36535 14.43826,14.48814 2.16401,1.6726 3.93638,3.31479 3.93864,3.64932 0.004,0.36664 -1.41805,1.27911 -3.57659,2.29737 -1.96934,0.92904 -4.3308,2.32743 -5.24767,3.10754 -3.20953,2.73082 -6.59865,8.82069 -8.38766,15.07181 l -0.69629,2.43288 -2.1256,0.12272 c -1.4747,0.0852 -2.17735,-0.039 -2.29459,-0.40548 z m 4.73377,-4.55747 c 2.93953,-8.63584 6.89045,-13.75231 12.83438,-16.62071 2.60044,-1.2549 3.1132,-1.64796 2.66998,-2.04676 -0.30167,-0.27148 -2.48941,-2.01712 -4.86159,-3.8792 -5.42344,-4.25724 -8.86325,-7.72329 -11.44229,-11.52965 l -2.01802,-2.97834 -1.91052,2.76016 c -2.43001,3.51068 -7.3347,8.14318 -13.48556,12.73727 -2.65459,1.9827 -4.82652,3.67211 -4.82652,3.75424 0,0.0821 0.99393,0.58321 2.2087,1.11353 7.4912,3.27033 12.97161,9.2379 15.90166,17.31522 1.25427,3.45766 1.27703,3.4874 2.48107,3.24385 1.11006,-0.22455 1.32193,-0.55939 2.44871,-3.86961 z m -102.27482,3.09558 c -1.03119,-1.90203 -1.79633,-7.61827 -1.55657,-11.62882 0.41521,-6.94462 1.074,-8.44776 11.8964,-27.14405 9.13492,-15.78109 10.83193,-19.73883 12.22677,-28.51539 0.25697,-1.61686 0.66511,-2.93973 0.90701,-2.93973 0.24186,0 1.75016,0.96627 3.3517,2.14726 6.80916,5.02108 10.55709,6.64644 25.07089,10.87247 22.10054,6.43511 25.09347,7.55044 29.07434,10.83478 3.67099,3.02867 8.10855,8.87315 8.11873,10.69276 0.004,0.64732 -2.44702,2.67549 -12.84534,10.63097 -2.20977,1.69062 -4.26373,3.07384 -4.56437,3.07384 -0.99274,0 -16.00418,-4.49324 -19.11435,-5.72132 -4.21611,-1.66477 -8.19829,-4.37092 -12.60131,-8.56344 l -3.73946,-3.56066 -0.28721,5.17202 c -0.55092,9.92052 -1.61312,12.99927 -8.66944,25.12826 -3.40855,5.85892 -4.9106,8.07837 -5.611,8.2909 -1.11889,0.33953 -17.49531,1.96987 -19.73457,1.96466 -1.04725,-0.002 -1.65021,-0.23285 -1.92222,-0.73451 z m 13.4021,-1.35622 8.31088,-0.89105 4.92042,-8.54651 c 2.70622,-4.70059 5.38931,-9.7813 5.96241,-11.29048 1.27301,-3.35235 2.27478,-8.80743 2.27959,-12.41327 0.005,-3.84794 0.44622,-6.94141 0.98974,-6.94141 0.25747,0 1.66427,1.19754 3.12623,2.66119 5.40122,5.40741 10.29797,8.75836 15.59728,10.67349 2.55312,0.92268 16.20953,4.91191 16.81504,4.91191 0.41245,0 12.321,-8.95432 14.98992,-11.27129 0.94748,-0.82253 1.45083,-1.56679 1.30805,-1.9341 -0.62252,-1.60132 -3.72512,-5.52673 -6.10609,-7.72532 -4.69014,-4.33092 -6.67053,-5.15716 -25.62033,-10.68903 -18.72869,-5.46734 -22.53683,-7.00225 -29.10618,-11.73151 l -2.86823,-2.06483 -0.88413,4.36009 c -1.58536,7.81779 -3.27197,11.51386 -12.44399,27.26968 -7.16883,12.31473 -9.59297,17.03578 -10.51432,20.47672 -0.84737,3.16468 -0.83932,9.39804 0.0168,13.11409 l 0.66873,2.90236 2.12362,0.0103 c 1.16798,0.005 5.8635,-0.39081 10.43447,-0.88089 z m 179.6151,1.4055 c -5.54074,-0.63451 -17.473,-2.24352 -17.71001,-2.38812 -0.55154,-0.33647 -8.46326,-14.98767 -9.54141,-17.66911 -1.68127,-4.1814 -2.3684,-7.76529 -2.666,-13.90516 l -0.27398,-5.65228 -3.61508,3.2194 c -4.59858,4.09523 -8.66628,6.7622 -12.59264,8.25634 -3.11797,1.18649 -19.63373,5.70825 -20.84944,5.70825 -0.71005,0 -13.4237,-9.97337 -15.67565,-12.29694 -1.6724,-1.72558 -1.59098,-2.36193 0.74369,-5.81318 3.37002,-4.98165 8.00351,-8.72051 13.54571,-10.93028 2.49274,-0.99391 12.02295,-3.73552 22.42349,-6.45069 13.12159,-3.42553 18.96722,-5.79175 24.91549,-10.08545 1.72963,-1.24853 3.41556,-2.27005 3.74651,-2.27005 0.44335,0 0.67526,0.73671 0.88113,2.79914 0.72285,7.24139 2.7818,12.8204 8.69375,23.55704 12.54314,22.77945 13.37498,24.56572 14.09096,30.25848 0.42839,3.40615 0.009,8.74836 -0.9344,11.9114 -0.52053,1.74464 -0.61458,1.82666 -2.14442,1.87026 -0.88001,0.025 -2.24697,-0.0285 -3.0377,-0.11905 z m 4.39683,-3.17039 c 0.975,-3.63019 1.11775,-8.22966 0.36869,-11.87887 -0.89024,-4.33695 -1.90339,-6.58894 -7.79012,-17.31566 -7.78687,-14.18912 -11.18983,-20.86115 -12.30511,-24.12605 -1.08149,-3.16595 -2.3287,-8.61484 -2.33957,-10.22126 -0.0135,-1.99652 -0.55346,-2.01309 -3.21867,-0.0987 -5.75615,4.13452 -11.85304,6.55167 -25.52875,10.12097 -22.92964,5.98456 -26.20937,7.33283 -31.67976,13.02341 -2.04829,2.13069 -4.87852,6.13112 -4.87852,6.89556 0,0.57504 3.8539,3.93822 10.67994,9.32003 l 5.13459,4.04824 4.31306,-1.15732 c 18.84185,-5.05584 20.25362,-5.69872 28.46576,-12.96246 2.21378,-1.95813 4.27998,-3.56023 4.59155,-3.56023 0.65452,0 0.89625,1.81685 1.21386,9.12329 0.31958,7.35075 1.25752,10.05565 7.24523,20.89424 2.26917,4.10748 4.21076,7.55205 4.31467,7.65462 0.36366,0.35898 16.83034,2.39837 18.83979,2.3333 l 2.02884,-0.0657 0.54452,-2.02741 z M 357.39171,187.54554 c -1.74474,-2.94612 -6.47969,-7.62467 -9.85841,-9.74095 -4.72715,-2.96091 -7.25317,-3.83899 -29.57524,-10.2807 -8.2367,-2.37696 -13.15055,-4.1201 -13.80342,-4.89665 -0.40115,-0.47713 -0.37084,-1.54386 0.14742,-5.18334 1.19986,-8.42674 4.35808,-15.2991 9.58103,-20.84874 2.74593,-2.91771 11.83568,-10.18044 28.21214,-22.54165 3.7867,-2.85826 8.64439,-6.84057 10.79484,-8.84957 4.13696,-3.86479 9.09685,-10.010789 11.35796,-14.074086 0.74747,-1.343205 1.63629,-2.443918 1.97517,-2.44603 0.34102,-0.0021 1.34982,1.302787 2.25922,2.922362 2.53041,4.506442 7.10861,10.279514 11.35114,14.313704 2.11599,2.01206 8.65322,7.47362 14.52719,12.13682 20.47589,16.25525 24.14716,19.61253 27.3677,25.02715 3.03819,5.10807 5.28829,12.84974 5.28829,18.19485 l 0,1.94099 -3.18344,1.02525 c -1.7509,0.56389 -8.7288,2.50406 -15.50646,4.31148 -14.70933,3.9226 -19.50968,5.50765 -23.14936,7.64377 -3.68343,2.16182 -7.75582,5.92629 -10.14492,9.37784 -1.08422,1.5664 -2.19769,2.84799 -2.47438,2.84799 -0.6684,0 -1.70867,-1.79757 -4.09716,-7.07968 l -1.98088,-4.38068 -2.49036,5.02765 c -2.68346,5.41742 -4.11182,7.65384 -4.88028,7.64111 -0.267,-0.004 -1.04003,-0.94443 -1.71779,-2.08889 z m 6.07192,-7.14784 c 1.70916,-3.47896 2.6384,-4.95049 3.07266,-4.86575 0.3512,0.0685 1.66964,2.40794 3.02493,5.36733 1.32131,2.88522 2.55859,5.40005 2.74947,5.58848 0.19092,0.18844 1.12111,-0.74657 2.06706,-2.0778 2.06029,-2.8993 6.54685,-7.02841 9.6617,-8.89191 4.41537,-2.64153 8.01509,-3.81622 28.0639,-9.15802 5.37834,-1.433 10.70303,-2.94501 11.83264,-3.36 l 2.05384,-0.75455 -0.14476,-2.41932 c -0.32594,-5.446 -3.08157,-13.30718 -6.28387,-17.92654 -3.03385,-4.37627 -7.0659,-7.91473 -27.66505,-24.27825 -13.74678,-10.92014 -18.63182,-15.91272 -23.70628,-24.228103 l -1.94769,-3.191625 -0.72833,1.312283 c -3.74985,6.756496 -12.44506,15.854125 -21.88284,22.895665 -9.4824,7.07482 -24.25009,18.57376 -26.74912,20.82833 -6.59614,5.95087 -10.7766,14.47871 -11.67827,23.82268 l -0.27698,2.87021 1.99727,0.84223 c 2.25437,0.95064 6.7464,2.33742 22.12486,6.83044 11.29947,3.30127 16.4288,5.23562 19.60596,7.39368 3.0589,2.0777 6.69189,5.5799 8.76902,8.45324 l 1.9069,2.63786 0.84142,-1.35166 c 0.46277,-0.74341 1.94399,-3.59592 3.29156,-6.3389 z"
       id="path2996"
       inkscape:connector-curvature="0" />
  </g>
</svg>
